<svg width="48" height="48" viewBox="0 0 48 48" fill="none" xmlns="http://www.w3.org/2000/svg">
<path d="M0 48V0H48V48H0Z" fill="#0D0D0E"/>
<path fill-rule="evenodd" clip-rule="evenodd" d="M19.37 1.87229L19.2595 2.23825C19.1916 2.434 19.0386 2.88506 18.9112 3.234C18.7838 3.58293 18.6054 4.04251 18.5204 4.25527C18.4355 4.46804 18.2231 4.97868 18.0532 5.40421C17.8748 5.82974 17.6879 6.26378 17.6284 6.38293C17.5689 6.50208 17.2631 7.11485 16.9572 7.74464C16.6429 8.37442 16.354 8.95315 16.3116 9.02123C16.2691 9.08932 16.0397 9.51485 15.7933 9.9574C15.5555 10.4 15.2751 10.9021 15.1732 11.0638C15.0712 11.2255 14.7994 11.651 14.5785 12C14.3491 12.3489 14.0348 12.834 13.8733 13.0638C13.7119 13.3021 13.3466 13.8212 13.0578 14.2212C12.7689 14.6297 12.2422 15.3361 11.8854 15.7957C11.5286 16.2638 10.8829 17.0383 10.4411 17.5319C9.99936 18.0255 9.22626 18.8595 8.70803 19.3957C8.19829 19.9234 7.28077 20.8085 6.67759 21.3531C6.0744 21.8978 5.15688 22.6723 4.63865 23.0808C4.12042 23.4978 3.3898 24.0425 3.01599 24.2978C2.64219 24.5531 2.25139 24.834 1.94555 25.0638L1.95405 23.1489L2.39582 22.851C2.64219 22.6893 3.10944 22.3659 3.44077 22.1276C3.7636 21.8893 4.63015 21.2 5.35228 20.5957C6.0744 20 7.24679 18.9191 7.95192 18.1957C8.65705 17.4808 9.5236 16.5276 9.88891 16.0851C10.2542 15.6425 10.6535 15.1659 10.7809 15.0212C10.9084 14.8765 11.2567 14.417 11.554 14C11.8514 13.5829 12.1232 13.217 12.1572 13.1914C12.1827 13.1659 12.3951 12.868 12.6245 12.5191C12.8539 12.1787 13.2362 11.5829 13.4825 11.2C13.7204 10.8255 14.1282 10.1446 14.3831 9.70208C14.6379 9.25953 15.0372 8.52761 15.2751 8.08506C15.5045 7.64251 15.9293 6.74038 16.2181 6.08506C16.507 5.42974 16.8213 4.73187 16.9148 4.53612C16.9997 4.33187 17.0762 4.10208 17.0762 4.02549C17.0762 3.94038 17.1102 3.83825 17.1526 3.78719C17.1866 3.74463 17.348 3.33612 17.4925 2.89357C17.6454 2.45102 17.7813 2.034 17.7983 1.98293C17.8238 1.90634 18.0617 1.87229 19.37 1.87229ZM14.9013 1.87229H16.8213L16.7279 2.15315C16.6684 2.29783 16.5325 2.69783 16.4135 3.02123C16.2946 3.35315 16.1077 3.84676 15.9887 4.12761C15.8783 4.40846 15.5725 5.11485 15.3091 5.70208C15.0542 6.28932 14.6209 7.19144 14.3576 7.70208C14.0857 8.22123 13.7119 8.89357 13.5165 9.21698C13.3296 9.53187 13.1682 9.81272 13.1682 9.85527C13.1682 9.88932 13.0663 10.0425 12.9558 10.1957C12.8369 10.3404 12.7434 10.4851 12.7434 10.5106C12.7434 10.5361 12.616 10.7404 12.4631 10.9702C12.3186 11.1914 12.0128 11.6425 11.8004 11.9659C11.588 12.2893 11.0953 12.9702 10.713 13.4893C10.3307 14.0085 9.81245 14.6553 9.57458 14.9361C9.32821 15.2085 8.86944 15.7446 8.54661 16.1276C8.22378 16.5021 7.49316 17.268 6.93245 17.8297C6.36325 18.3914 5.41175 19.268 4.80006 19.7872C4.18838 20.2978 3.3813 20.9446 2.99051 21.234C2.59971 21.5148 2.20891 21.8042 2.11546 21.8723C1.94555 22 1.94555 21.9829 1.95405 19.6595L2.36183 19.3957C2.58272 19.2425 2.8036 19.0808 2.84608 19.0297C2.88856 18.9702 3.08396 18.817 3.27086 18.6808C3.45776 18.5446 3.93352 18.1617 4.33281 17.8383C4.7321 17.5148 5.63263 16.6723 6.33776 15.9659C7.0429 15.2595 8.08785 14.0765 8.67405 13.3446C9.25175 12.6042 9.89741 11.7617 10.1098 11.4723C10.3222 11.1744 10.645 10.6893 10.8319 10.3829C11.0188 10.0766 11.2397 9.75315 11.3247 9.65953C11.4011 9.56591 11.4691 9.46378 11.4691 9.42974C11.4691 9.38719 11.639 9.08081 11.8429 8.74889C12.0468 8.40846 12.2677 8.02549 12.3271 7.90634C12.3951 7.78719 12.7264 7.12336 13.0663 6.434C13.3976 5.75315 13.6779 5.17442 13.6779 5.14889C13.6779 5.12336 13.7714 4.90208 13.8733 4.66378C13.9838 4.41698 14.1792 3.94889 14.2981 3.61698C14.4171 3.29357 14.604 2.76591 14.7059 2.45102L14.9013 1.87229ZM12.0043 1.87229H12.9303C13.4401 1.87229 13.8563 1.88081 13.8563 1.88932C13.8563 1.89783 13.7544 2.1957 13.627 2.55315C13.508 2.90208 13.3381 3.36166 13.2617 3.57442C13.1767 3.77868 13.0748 4.05102 13.0238 4.17017C12.9728 4.28081 12.7519 4.78293 12.5395 5.27655C12.3186 5.76166 11.9533 6.51059 11.7325 6.93612C11.5116 7.35315 11.1717 7.9574 10.9763 8.27229C10.7809 8.58719 10.6195 8.86804 10.6195 8.89357C10.6195 8.91059 10.4411 9.20847 10.2117 9.54889C9.99086 9.88932 9.75298 10.2468 9.68502 10.3489C9.61706 10.451 9.27723 10.9276 8.92042 11.4127C8.5721 11.8978 8.20679 12.3744 8.11334 12.468C8.01989 12.5617 7.65458 13.0042 7.29776 13.4468C6.94095 13.8893 6.21033 14.6893 5.6836 15.234C5.14838 15.7702 4.25635 16.5957 3.69564 17.0638C3.13493 17.5319 2.51475 18.0425 1.95405 18.468V16.2127L2.53175 15.7872C2.84608 15.5489 3.87405 14.5957 4.80856 13.6595C6.05741 12.4 6.74555 11.634 7.39971 10.7574C7.88396 10.1021 8.49564 9.22549 8.75051 8.81698C9.01387 8.39995 9.31121 7.92336 9.43015 7.75315C9.5406 7.58293 9.94838 6.80846 10.3392 6.04251C10.7215 5.26804 11.0443 4.57868 11.0443 4.51059C11.0443 4.434 11.0953 4.30634 11.1632 4.21272C11.2227 4.1191 11.3841 3.75315 11.5116 3.40421C11.639 3.04676 11.8089 2.56166 11.8769 2.31485L12.0043 1.87229ZM9.10732 1.87229H11.0443L10.9084 2.1957C10.8319 2.36591 10.679 2.78293 10.5686 3.10634C10.4581 3.43825 10.3222 3.74463 10.2797 3.78719C10.2287 3.83825 10.1948 3.92336 10.1948 3.98293C10.1948 4.034 9.94838 4.5957 9.64254 5.21698C9.3367 5.82974 8.98838 6.5191 8.86095 6.74038C8.73352 6.96166 8.46166 7.42123 8.25776 7.76166C8.05387 8.10208 7.68006 8.68932 7.4252 9.06378C7.17033 9.43825 6.93245 9.76166 6.89847 9.78719C6.86449 9.81272 6.55865 10.2127 6.20183 10.6808C5.85352 11.1489 4.95298 12.1446 4.20537 12.8936C3.45776 13.651 2.65068 14.4255 1.95405 14.9787L1.97104 12.6383L2.71015 11.9914C3.10944 11.6425 3.89104 10.834 4.42626 10.2042C4.96998 9.57442 5.74307 8.57017 6.15086 7.9574C6.55865 7.35315 6.93245 6.77442 7.00042 6.68081C7.05989 6.58719 7.39971 5.91485 7.75652 5.19144C8.10484 4.46804 8.49564 3.62549 8.61458 3.3191C8.72502 3.01272 8.88644 2.56166 8.9629 2.32336L9.10732 1.87229ZM6.32077 1.87229H8.07936L8.01989 2.10208C7.9944 2.22974 7.87546 2.54463 7.76502 2.80846C7.65458 3.06378 7.56113 3.30208 7.56962 3.33612C7.56962 3.37017 7.31475 3.90634 7.00042 4.52761C6.69458 5.14889 6.37174 5.78719 6.27829 5.9574C6.19334 6.1191 5.93847 6.52761 5.71759 6.85953C5.4967 7.19995 5.1059 7.77017 4.84254 8.13612C4.57918 8.50208 3.9675 9.24251 3.47475 9.78719C2.98201 10.3234 2.43829 10.8936 1.95405 11.3617L1.96254 9.10634L2.52325 8.48506C2.82909 8.14464 3.26236 7.61698 3.47475 7.3191C3.68714 7.01272 3.88254 6.74038 3.91652 6.72336C3.94201 6.69783 4.09493 6.46804 4.25635 6.21272C4.41776 5.9574 4.58767 5.68506 4.63865 5.59995C4.68113 5.52336 4.88502 5.16591 5.08042 4.80846C5.28431 4.45953 5.44573 4.1191 5.44573 4.05953C5.44573 3.99995 5.52219 3.83825 5.59865 3.70208C5.6836 3.5574 5.879 3.08932 6.04042 2.65527L6.32077 1.87229ZM1.96254 1.87229H5.27582L5.1059 2.36591C5.01245 2.62974 4.83405 3.06378 4.71511 3.3191C4.59617 3.57442 4.43475 3.90634 4.35829 4.04251C4.29033 4.18719 4.1459 4.45102 4.06095 4.63825C3.9675 4.82549 3.86555 4.9957 3.84006 5.02123C3.80608 5.04676 3.63617 5.31059 3.44927 5.61698C3.26236 5.92336 2.86307 6.48506 2.55723 6.87655C2.25139 7.25953 1.98803 7.58293 1.97953 7.57442C1.97104 7.57442 1.96254 6.28932 1.96254 4.72336V1.87229ZM23.9576 1.87229C26.7611 1.87229 27.5342 1.89783 27.5342 1.98293C27.5342 2.034 27.6192 2.33187 27.7296 2.63825C27.8401 2.94463 27.976 3.32761 28.0355 3.48932C28.0949 3.65102 28.2139 3.99995 28.3073 4.25527C28.4008 4.51059 28.5537 4.88506 28.6386 5.08932C28.7321 5.28506 28.8001 5.49783 28.8001 5.5574C28.8001 5.60846 28.834 5.70208 28.8765 5.74463C28.919 5.7957 29.0719 6.10208 29.2079 6.42549C29.3523 6.7574 29.6326 7.37017 29.828 7.78719C30.0319 8.21272 30.4142 8.95314 30.6776 9.44676C30.941 9.94038 31.2043 10.434 31.2723 10.5531C31.3402 10.6723 31.4762 10.9021 31.5696 11.0638C31.6716 11.2255 32.0199 11.7872 32.3342 12.2978C32.6486 12.817 32.9289 13.251 32.9629 13.2766C32.9884 13.3021 33.1243 13.4893 33.2602 13.7021C33.3877 13.9148 33.8464 14.5617 34.2712 15.1489C34.6875 15.7361 35.1633 16.3489 35.5965 16.8085L35.605 18.3404C35.605 19.1829 35.639 20.4255 35.6815 21.1063C35.7155 21.7872 35.8344 22.8936 35.9363 23.5744C36.0383 24.2553 36.2167 25.3106 36.3356 25.9148C36.4461 26.5191 36.6585 27.4638 36.8029 28C36.9388 28.5361 37.1512 29.3021 37.2702 29.7021C37.3891 30.1021 37.6015 30.7744 37.7459 31.1914C37.8818 31.617 38.0687 32.1276 38.1452 32.3404C38.2302 32.5531 38.4086 32.9872 38.536 33.3191C38.6634 33.651 38.8673 34.1276 38.9778 34.3829C39.0882 34.6383 39.5385 35.5829 39.9802 36.468C40.5155 37.5404 40.8128 38.2468 40.8638 38.5787C40.9148 38.8425 40.9912 39.2851 41.0337 39.5574C41.0847 39.8212 41.1187 40.3063 41.1187 40.6383C41.1187 40.9702 41.0507 41.6765 40.9657 42.2127C40.8723 42.7489 40.7194 43.4042 40.6174 43.6595C40.5155 43.9148 40.3371 44.3404 40.2181 44.5957C40.0992 44.851 39.8613 45.2851 39.3856 46.0425H8.46166L8.05387 45.3191C7.83298 44.9191 7.55263 44.3659 7.44219 44.0851C7.32325 43.8042 7.11936 43.1659 7.00042 42.6638C6.80502 41.8978 6.77104 41.5574 6.77104 40.6383C6.77104 39.7276 6.80502 39.3787 6.98343 38.6808C7.11086 38.2127 7.33174 37.6 7.48466 37.3191C7.63759 37.0383 7.90944 36.5021 8.08785 36.1276C8.27475 35.7531 8.51263 35.2595 8.62307 35.0212C8.73351 34.7914 8.93741 34.3319 9.08183 34C9.22626 33.668 9.3452 33.3787 9.3452 33.3446C9.3452 33.3021 9.42166 33.1148 9.51511 32.9191C9.60856 32.7148 9.77847 32.2638 9.89741 31.9148C10.0248 31.5659 10.2287 30.9361 10.3647 30.5106C10.5006 30.0936 10.7045 29.4212 10.8149 29.0212C10.9339 28.6212 11.1208 27.8553 11.2482 27.3191C11.3671 26.7829 11.5456 25.9574 11.639 25.4893C11.7409 25.0212 11.8514 24.2978 11.9024 23.8723C11.9448 23.4553 12.0383 22.6893 12.1148 22.1702C12.1912 21.634 12.2677 20.2893 12.3526 16.8085L12.8709 16.1276C13.1512 15.7531 13.4316 15.4127 13.4825 15.3617C13.5335 15.3191 13.8224 14.9191 14.1197 14.4851C14.4171 14.0425 14.8418 13.4127 15.0542 13.0808C15.2751 12.7404 15.5979 12.2383 15.7679 11.9574C15.9378 11.6765 16.2096 11.217 16.3795 10.9361C16.5409 10.6553 16.8213 10.1617 16.9997 9.82974C17.1781 9.50634 17.5774 8.71485 17.8833 8.08506C18.1976 7.45527 18.5034 6.82549 18.5714 6.68081C18.6394 6.54464 18.8263 6.1191 18.9877 5.74463C19.1576 5.37017 19.2935 5.03825 19.2935 5.00421C19.2935 4.96166 19.3445 4.80846 19.4125 4.66378C19.4804 4.51059 19.6588 4.05953 19.8032 3.65953C19.9392 3.25953 20.1176 2.74889 20.1856 2.51059C20.262 2.28081 20.33 2.034 20.3555 1.98293C20.3809 1.89783 21.1795 1.87229 23.9576 1.87229ZM29.3183 1.87229C29.8705 1.87229 30.0829 1.89783 30.0829 1.98293C30.0829 2.034 30.1763 2.3574 30.2953 2.68081C30.4142 3.01272 30.6096 3.54889 30.7371 3.87229C30.856 4.20421 31.0514 4.69783 31.1618 4.97868C31.2808 5.25953 31.4592 5.68506 31.5696 5.91485C31.6716 6.15315 32.0794 6.97017 32.4617 7.74464C32.844 8.5191 33.2517 9.29357 33.3622 9.47229C33.4726 9.64251 33.5661 9.81272 33.5661 9.85527C33.5661 9.88932 33.6595 10.0425 33.7785 10.1957C33.8889 10.3404 33.9909 10.4936 33.9909 10.5361C33.9909 10.5702 34.1523 10.8425 34.3562 11.1489C34.5516 11.4553 34.8574 11.9148 35.0273 12.1702C35.2057 12.4255 35.5456 12.9276 35.7919 13.2766C36.0383 13.634 36.4631 14.2042 36.7434 14.5531C37.0238 14.9021 37.4571 15.4638 37.7204 15.7872C37.9753 16.1191 39.0287 17.2255 40.0567 18.2553C41.0847 19.2936 42.1636 20.3234 42.444 20.5617C42.7243 20.7914 43.2935 21.251 43.7098 21.5744C44.1346 21.9063 44.7038 22.3234 44.9841 22.5106C45.273 22.6978 45.6043 22.9361 45.7317 23.0468C45.9611 23.2255 45.9696 23.2595 45.9696 24.0851C45.9696 24.5957 45.9356 24.9361 45.8847 24.9361C45.8337 24.9361 45.5788 24.7829 45.307 24.5957C45.0351 24.417 44.4914 24.0255 44.1006 23.7361C43.7013 23.4468 42.8178 22.7404 42.1466 22.1787C41.467 21.617 40.2776 20.5191 39.5045 19.7446C38.7314 18.9702 37.8054 17.9744 37.4316 17.5319C37.0663 17.0893 36.6075 16.5361 36.4036 16.2978C36.1997 16.068 35.7834 15.5489 35.4861 15.1489C35.1887 14.7489 34.5006 13.7787 33.9654 12.9787C33.4302 12.1872 32.8864 11.3446 32.759 11.1063C32.6316 10.8765 32.4702 10.6212 32.4107 10.5531C32.3427 10.4851 32.2917 10.3914 32.2917 10.3404C32.2917 10.2978 32.1983 10.1191 32.0878 9.9574C31.9774 9.7957 31.6376 9.18293 31.3402 8.5957C31.0344 8.00846 30.5841 7.08932 30.3463 6.55315C30.0999 6.01698 29.845 5.47229 29.7771 5.34464C29.7091 5.20847 29.6496 5.05527 29.6496 5.00421C29.6496 4.94464 29.5902 4.78293 29.5222 4.63825C29.4457 4.50208 29.3353 4.22974 29.2673 4.04251C29.2079 3.85527 29.0125 3.3191 28.851 2.85102C28.6811 2.38293 28.5452 1.97442 28.5452 1.94038C28.5452 1.89783 28.8935 1.87229 29.3183 1.87229ZM33.0054 1.91485L33.0818 2.17017C33.1243 2.31485 33.2517 2.69783 33.3707 3.02123C33.4811 3.35315 33.651 3.78719 33.736 3.99995C33.821 4.21272 34.1268 4.9191 34.4156 5.57442C34.7045 6.22974 35.1632 7.16591 35.4266 7.65953C35.6985 8.15315 36.0043 8.70634 36.1063 8.89357C36.2082 9.08081 36.3526 9.29357 36.4121 9.36166C36.4801 9.42974 36.531 9.51485 36.531 9.5574C36.531 9.59144 36.8794 10.1276 37.2956 10.7489C37.7204 11.3617 38.4171 12.3319 38.8503 12.9021C39.2836 13.4638 39.8613 14.1787 40.1417 14.4766C40.422 14.7744 41.1102 15.4808 41.6709 16.0425C42.2316 16.6127 42.9792 17.3276 43.336 17.6425C43.6843 17.9659 44.4149 18.5531 45.9611 19.7021V20.7914C45.9611 21.4553 45.9356 21.8723 45.8847 21.8723C45.8337 21.8723 45.6128 21.7446 45.3919 21.6C45.171 21.4468 44.6868 21.0808 44.313 20.7829C43.9392 20.4851 43.302 19.9744 42.9112 19.651C42.5119 19.3276 41.5094 18.3829 40.6939 17.5574C39.8698 16.7234 38.8163 15.5659 38.3576 14.9872C37.8903 14.417 37.2532 13.5914 36.9388 13.1574C36.616 12.7319 36.0808 11.9659 35.7325 11.4468C35.3926 10.9361 35.0443 10.3744 34.9509 10.2127C34.8659 10.051 34.7045 9.78719 34.6025 9.634C34.5006 9.48932 34.4156 9.34463 34.4156 9.3191C34.4156 9.29357 34.3392 9.17442 34.2542 9.04676C34.1608 8.91059 33.787 8.1957 33.4132 7.44676C33.0309 6.69783 32.6316 5.87229 32.5211 5.61698C32.4022 5.36166 32.1728 4.82549 32.0029 4.42549C31.833 4.02549 31.6971 3.66804 31.6886 3.61698C31.6886 3.57442 31.6121 3.37868 31.5271 3.19144C31.4337 3.00421 31.3572 2.79144 31.3572 2.72336C31.3572 2.65527 31.2978 2.45102 31.2298 2.28081C31.1533 2.10208 31.1024 1.94038 31.1024 1.91485C31.1024 1.88932 31.5356 1.88081 33.0054 1.91485ZM34.0079 1.87229L35.8174 1.86378L35.9703 2.27229C36.0553 2.49357 36.2167 2.95315 36.3356 3.27655C36.4546 3.60846 36.6925 4.17868 36.8539 4.55315C37.0153 4.92761 37.2277 5.40421 37.3296 5.61698C37.4316 5.82974 37.7969 6.5191 38.1452 7.14889C38.485 7.77868 38.8588 8.41698 38.9693 8.55315C39.0797 8.69783 39.1647 8.834 39.1647 8.87655C39.1647 8.91059 39.5045 9.40421 39.9123 9.98293C40.3116 10.5531 40.6684 11.0383 40.7024 11.0638C40.7279 11.0893 41.1356 11.5659 41.6114 12.1276C42.0786 12.6893 42.8348 13.5148 43.302 13.9574C43.7608 14.4085 44.4489 15.0127 44.8227 15.3191C45.1965 15.617 45.6043 15.9659 45.7317 16.0851C45.9611 16.2978 45.9696 16.3148 45.9696 17.3446C45.9696 17.9148 45.9356 18.3829 45.9017 18.3829C45.8677 18.3829 45.4174 18.0595 44.9077 17.668C44.313 17.217 43.302 16.2808 42.1806 15.1319C41.2036 14.1361 40.1077 12.9446 39.7594 12.4851C39.411 12.0255 38.8928 11.3191 38.604 10.9106C38.3151 10.5021 37.9073 9.90634 37.7119 9.57442C37.508 9.25102 37.3126 8.94463 37.2786 8.89357C37.2362 8.85102 37.0153 8.48506 36.7859 8.08506C36.548 7.68506 36.1148 6.86804 35.8174 6.25527C35.5201 5.65102 35.1802 4.92761 35.0528 4.66378C34.9339 4.39144 34.8404 4.13612 34.8404 4.08506C34.8404 4.04251 34.781 3.89783 34.713 3.77017C34.6535 3.634 34.4666 3.1574 34.3052 2.70634L34.0079 1.87229ZM38.7569 1.91485L38.8843 2.25527C38.9523 2.44251 39.0542 2.74889 39.1137 2.93612C39.1732 3.12336 39.2836 3.40421 39.3601 3.57442C39.428 3.73612 39.6234 4.17868 39.7933 4.55315C39.9548 4.92761 40.2861 5.59144 40.5325 6.04251C40.7788 6.48506 41.2036 7.19144 41.484 7.61698C41.7558 8.034 42.1381 8.58719 42.3335 8.834C42.5289 9.08932 42.9622 9.62549 43.2935 10.0255C43.6248 10.434 44.2365 11.1063 44.6528 11.5148C45.0691 11.9319 45.5363 12.3744 45.9696 12.7234V13.8042C45.9611 14.4 45.9356 14.8936 45.9017 14.8936C45.8592 14.8936 45.6468 14.7319 45.4089 14.5361C45.1795 14.3319 44.4489 13.634 43.7948 12.9787C43.1406 12.3234 42.3845 11.5319 42.1211 11.234C41.8578 10.9276 41.4245 10.3744 41.1526 9.99995C40.8808 9.62549 40.6429 9.29357 40.6174 9.27655C40.5919 9.25102 40.4645 9.08081 40.3456 8.89357C40.2266 8.70634 39.9548 8.2808 39.7424 7.9574C39.53 7.62549 39.1477 6.97868 38.8928 6.51059C38.6379 6.04251 38.3151 5.40421 38.1707 5.10634C38.0263 4.79995 37.7714 4.20421 37.593 3.78719C37.4231 3.36166 37.2277 2.89357 37.1597 2.74038C37.0917 2.58719 37.0323 2.39995 37.0323 2.33187C37.0238 2.25527 36.9813 2.1191 36.9388 2.034C36.8709 1.87229 36.8963 1.86378 38.7569 1.91485ZM39.7933 1.87229H41.6284L41.7133 2.14463C41.7643 2.29783 41.7983 2.46804 41.7983 2.52761C41.7983 2.58719 41.9002 2.85102 42.0192 3.12336C42.1381 3.3957 42.4694 4.07655 42.7498 4.63825C43.0301 5.19995 43.5144 6.034 43.8287 6.50208C44.1346 6.96166 44.7463 7.73612 45.9611 9.10634V10.1702C45.9611 10.7489 45.9356 11.251 45.9017 11.268C45.8592 11.2936 45.5109 10.9787 45.1116 10.5702C44.7123 10.1617 44.1431 9.52336 43.8457 9.14889C43.5484 8.77442 43.2765 8.44251 43.251 8.42549C43.2171 8.39995 42.9197 7.97442 42.5884 7.48932C42.2571 6.9957 41.9002 6.44251 41.7983 6.25527C41.6879 6.06804 41.45 5.64251 41.2716 5.3191C41.0847 4.98719 40.7873 4.37442 40.5919 3.9574C40.405 3.53187 40.1417 2.89357 40.0227 2.52761L39.7933 1.87229ZM45.9611 1.87229V4.6808C45.9611 6.86804 45.9356 7.48932 45.8507 7.48932C45.7997 7.48932 45.6298 7.3191 45.4854 7.12336C45.341 6.92761 45.0521 6.53612 44.8482 6.25527C44.6358 5.97442 44.2705 5.40421 44.0326 4.97868C43.7948 4.56166 43.4464 3.88932 43.2595 3.48932C43.0641 3.08932 42.8857 2.65527 42.8432 2.5191C42.8093 2.38293 42.7498 2.26378 42.7073 2.24676C42.6733 2.22974 42.6479 2.13612 42.6479 2.04251C42.6479 1.88081 42.7073 1.87229 45.9611 1.87229ZM36.5565 18.0425C36.5735 18.068 36.8709 18.4085 37.8648 19.5319L37.9243 20.2978C37.9583 20.7234 38.0602 21.7106 38.1537 22.5106C38.2386 23.3106 38.4171 24.4936 38.536 25.1489C38.6634 25.8042 38.8503 26.6723 38.9608 27.0893C39.0712 27.4978 39.1647 27.8808 39.1647 27.9404C39.1647 27.9914 39.2666 28.3659 39.3856 28.7659C39.513 29.1659 39.7594 29.9319 39.9463 30.468C40.1417 31.0042 40.3455 31.6 40.4135 31.7872C40.473 31.9744 40.6089 32.2893 40.6939 32.4936C40.7873 32.6893 40.8638 32.868 40.8638 32.8936C40.8638 32.9191 41.0762 33.3872 41.331 33.9404C41.5859 34.4851 41.8493 35.0297 41.9172 35.1489C41.9852 35.268 42.1466 35.5574 42.2571 35.7872C42.376 36.0255 42.6224 36.468 42.7923 36.7744C42.9707 37.0808 43.2001 37.4553 43.302 37.6C43.4125 37.7531 43.4974 37.8893 43.4974 37.9148C43.4974 37.9404 43.7948 38.3914 44.1516 38.9191C44.5169 39.4383 45.0691 40.1957 45.9611 41.3191V42.3659C45.9611 43.1404 45.9356 43.4042 45.8507 43.4042C45.7997 43.4042 45.3494 42.8936 44.8567 42.2808C44.364 41.6595 43.7948 40.9106 43.5824 40.6127C43.37 40.3148 42.9962 39.7531 42.7583 39.3702C42.5119 38.9957 42.1126 38.3404 41.8663 37.9148C41.6199 37.4978 41.331 36.9957 41.2291 36.8085C41.1271 36.6212 40.8043 36 40.524 35.4297C40.2436 34.851 40.0142 34.3319 40.0142 34.2808C40.0142 34.2212 39.9802 34.1361 39.9378 34.0851C39.8868 34.0425 39.7339 33.7106 39.5894 33.3617C39.4365 33.0127 39.2666 32.5702 39.2071 32.3829C39.1477 32.1957 39.0287 31.8893 38.9438 31.7021C38.8673 31.5148 38.7739 31.2425 38.7314 31.1063C38.6974 30.9702 38.5955 30.6383 38.502 30.3829C38.4171 30.1276 38.2471 29.6255 38.1452 29.2766C38.0348 28.9276 37.9158 28.5021 37.8903 28.3404C37.8563 28.1787 37.7459 27.7361 37.6525 27.3617C37.559 26.9872 37.3806 26.1787 37.2617 25.5744C37.1427 24.9702 36.9643 23.8978 36.8624 23.1914C36.7604 22.4936 36.65 21.2425 36.6075 20.4255C36.5735 19.6085 36.5395 18.7234 36.531 18.468C36.531 18.2127 36.5395 18.017 36.5565 18.0425ZM11.3162 18.1872C11.3671 18.2212 11.3841 18.6638 11.3502 19.3957C11.3162 20.034 11.2567 20.8766 11.2142 21.2766C11.1717 21.6766 11.0953 22.4 11.0528 22.8936C11.0018 23.3872 10.8914 24.2127 10.7894 24.7234C10.696 25.2425 10.5176 26.1021 10.3986 26.6383C10.2712 27.1744 10.0843 27.9829 9.96537 28.4255C9.84644 28.868 9.65953 29.5404 9.5406 29.9149C9.42166 30.2893 9.21776 30.8851 9.08183 31.234C8.9459 31.5829 8.83546 31.9319 8.83546 32C8.83546 32.068 8.80148 32.1702 8.759 32.2127C8.71652 32.2638 8.60608 32.5276 8.49564 32.8085C8.39369 33.0893 8.23228 33.4893 8.13883 33.7021C8.04537 33.9148 7.91794 34.2042 7.85847 34.3404C7.799 34.4766 7.6036 34.9021 7.4167 35.2766C7.23829 35.651 6.85599 36.4 6.55865 36.9361C6.2613 37.4723 5.92998 38.068 5.81104 38.2553C5.70059 38.4425 5.53068 38.7319 5.44573 38.8936C5.36077 39.0553 5.22484 39.251 5.14838 39.3191C5.07192 39.3872 5.00396 39.4723 5.00396 39.5148C5.01245 39.5489 4.88502 39.7531 4.7321 39.9829C4.58767 40.2042 4.36679 40.5021 4.26484 40.6383C4.1544 40.7829 3.84856 41.1829 3.5852 41.5404C3.31334 41.8978 2.85458 42.4851 2.54874 42.8425C2.2429 43.2 1.98803 43.4978 1.97104 43.4893C1.96254 43.4893 1.95405 42.9787 1.95405 41.234L2.29387 40.851C2.48077 40.6383 2.8121 40.2212 3.02449 39.9148C3.22838 39.6085 3.51723 39.2085 3.66166 39.0212C3.79759 38.834 3.98449 38.5446 4.06944 38.3829C4.1544 38.2212 4.28183 38.0255 4.3413 37.9574C4.40927 37.8893 4.63015 37.5404 4.83405 37.1914C5.04644 36.8425 5.31829 36.3659 5.44573 36.1276C5.57316 35.8978 5.84502 35.3617 6.05741 34.9361C6.2698 34.5191 6.59263 33.8297 6.78803 33.4042C6.98343 32.9872 7.13635 32.6127 7.13635 32.5787C7.13635 32.5361 7.2213 32.3063 7.33175 32.068C7.44219 31.8212 7.57812 31.4978 7.6206 31.3617C7.67157 31.2255 7.86697 30.6297 8.05387 30.0425C8.24927 29.4553 8.50413 28.6553 8.61458 28.2553C8.73352 27.8553 8.9459 27.0127 9.08183 26.3829C9.22626 25.7531 9.43865 24.6383 9.54909 23.9148C9.66803 23.1914 9.80396 21.9063 9.96537 19.5319L10.6025 18.834C10.9509 18.451 11.2737 18.1617 11.3162 18.1872ZM39.8103 21.4468C40.3201 21.9404 40.7618 22.434 40.7873 22.5531C40.8213 22.6723 40.8468 22.9617 40.8553 23.1914C40.8638 23.4297 40.9402 23.9659 41.0337 24.3829C41.1271 24.8085 41.2461 25.3787 41.2886 25.6595C41.331 25.9404 41.467 26.5191 41.5859 26.9361C41.7048 27.3617 41.9002 28.0255 42.0192 28.4255C42.1381 28.8255 42.325 29.3957 42.4355 29.7021C42.5459 30.0085 42.7073 30.4425 42.7923 30.6723C42.8772 30.9021 42.9707 31.0978 43.0047 31.1149C43.0471 31.1319 43.0726 31.217 43.0726 31.3021C43.0726 31.3787 43.1661 31.6425 43.2765 31.8723C43.387 32.1106 43.7183 32.7744 44.0071 33.3617C44.296 33.9489 44.6528 34.6383 44.7887 34.8936C44.9332 35.1489 45.0691 35.3787 45.1031 35.4042C45.1286 35.4297 45.222 35.5829 45.3155 35.7446C45.4004 35.9063 45.5873 36.2042 45.7148 36.4085C45.9611 36.7659 45.9611 36.7744 45.9611 38.1276C45.9611 38.9531 45.9271 39.5063 45.8762 39.5319C45.8252 39.5574 45.5873 39.2851 45.3409 38.9276C45.1031 38.5702 44.7717 38.0936 44.6188 37.8638C44.4744 37.634 44.347 37.4212 44.347 37.3872C44.347 37.3446 44.279 37.2425 44.194 37.1489C44.1176 37.0553 43.8202 36.5787 43.5484 36.0851C43.2765 35.5914 43.0217 35.1319 42.9792 35.0638C42.9367 34.9957 42.7753 34.6723 42.6139 34.3404C42.4525 34.0085 42.2061 33.4893 42.0617 33.1744C41.9172 32.851 41.7983 32.5787 41.7983 32.5531C41.7983 32.5276 41.7048 32.3063 41.5944 32.068C41.484 31.8212 41.2886 31.3531 41.1611 31.0212C41.0337 30.6893 40.8808 30.2553 40.8213 30.0425C40.7618 29.8297 40.6514 29.4893 40.5834 29.2766C40.507 29.0638 40.354 28.5702 40.2351 28.1702C40.1247 27.7702 39.9378 27.0297 39.8188 26.5106C39.6999 26 39.5045 25.0383 39.3856 24.3829C39.2666 23.7276 39.1307 22.7148 39.0797 22.1276C39.0287 21.5404 38.9608 20.9531 38.9353 20.8085C38.8928 20.5787 38.9948 20.6553 39.8103 21.4468ZM8.87794 20.7063C8.89493 20.7148 8.86944 21.1829 8.83546 21.7446C8.80148 22.3063 8.68254 23.2425 8.58059 23.8297C8.48714 24.417 8.31723 25.2595 8.22378 25.7021C8.13033 26.1446 8.01139 26.6808 7.97741 26.8936C7.93493 27.1063 7.81599 27.5404 7.72254 27.8723C7.62909 28.2042 7.43369 28.851 7.28927 29.3191C7.14484 29.7872 6.95794 30.3404 6.88148 30.5531C6.79652 30.7659 6.6436 31.1659 6.54166 31.4468C6.43971 31.7276 6.21882 32.2638 6.04891 32.6383C5.8875 33.0127 5.54767 33.7617 5.28431 34.2978C5.02944 34.834 4.79157 35.2936 4.75759 35.3191C4.7236 35.3446 4.62166 35.5148 4.52821 35.7021C4.43475 35.8893 4.18838 36.3319 3.98449 36.6808C3.78059 37.0383 3.54272 37.4212 3.45776 37.5319C3.37281 37.651 3.13493 37.9914 2.93104 38.2978C2.72714 38.6042 2.4298 39.0297 1.99652 39.668L1.97104 38.1702C1.95405 36.851 1.97104 36.6553 2.10697 36.451C2.19192 36.3148 2.33635 36.0936 2.43829 35.9574C2.53175 35.8212 2.70166 35.5489 2.8036 35.3617C2.91405 35.1744 3.16891 34.7148 3.3813 34.3404C3.5852 33.9659 3.94201 33.2766 4.1629 32.8085C4.37529 32.3404 4.65564 31.7276 4.78307 31.4468C4.90201 31.1659 5.00396 30.9021 5.01245 30.851C5.01245 30.8085 5.1059 30.5617 5.22484 30.3234C5.34378 30.0766 5.43723 29.8127 5.43723 29.7446C5.43723 29.6766 5.53068 29.3787 5.64113 29.0893C5.75157 28.7914 5.91298 28.2893 6.01493 27.9574C6.10838 27.6255 6.30378 26.8595 6.43971 26.2553C6.58413 25.651 6.79652 24.5787 6.91546 23.8723C7.0344 23.1744 7.13635 22.5361 7.13635 22.468C7.12785 22.4 7.51865 21.9659 7.9944 21.5148C8.47015 21.0638 8.86944 20.6978 8.87794 20.7063ZM5.99794 23.2595C6.01493 23.268 5.98095 23.5489 5.92998 23.8723C5.8875 24.2042 5.75157 24.9106 5.63263 25.4468C5.51369 25.9829 5.32679 26.7744 5.20785 27.1914C5.08891 27.617 4.85953 28.3574 4.69812 28.851C4.5367 29.3446 4.32431 29.9404 4.23086 30.1702C4.13741 30.4085 3.9675 30.8255 3.84856 31.1063C3.72962 31.3872 3.33882 32.2127 2.98201 32.9361C2.6252 33.6595 2.25139 34.3914 1.94555 34.851L1.95405 33.1744C1.95405 31.5744 1.96254 31.4723 2.15794 31.0893C2.26838 30.8595 2.44679 30.4936 2.54874 30.2553C2.65068 30.0255 2.79511 29.6595 2.86307 29.4468C2.93104 29.234 3.04148 28.9446 3.09245 28.8085C3.15192 28.6723 3.30484 28.2297 3.42378 27.8297C3.55121 27.4297 3.74661 26.7659 3.86555 26.3404C3.98449 25.9234 4.07794 25.4978 4.07794 25.4042C4.07794 25.3106 4.11192 25.0978 4.1544 24.9361C4.22236 24.6978 4.38378 24.5276 5.00396 24.068C5.42874 23.7617 5.81953 23.4383 5.879 23.3702C5.92998 23.2936 5.98944 23.2425 5.99794 23.2595ZM41.9852 23.4042C42.0447 23.4127 42.2061 23.5063 42.3505 23.6255C42.4864 23.7446 42.8348 24.0255 43.1151 24.2553C43.6248 24.6553 43.6248 24.6638 43.7778 25.3702C43.8627 25.7617 44.0326 26.434 44.1516 26.851C44.2705 27.2766 44.4574 27.8638 44.5679 28.1702C44.6783 28.4766 44.7717 28.7659 44.7717 28.8085C44.7717 28.8595 44.9162 29.2425 45.0776 29.6595C45.2475 30.0851 45.4344 30.5191 45.4939 30.6383C45.5448 30.7574 45.6723 31.0212 45.7742 31.234C45.9441 31.5829 45.9611 31.7531 45.9611 33.0893C45.9611 33.9744 45.9271 34.5702 45.8762 34.5957C45.8252 34.6212 45.7317 34.5106 45.6553 34.3659C45.5703 34.2127 45.4854 34.068 45.4514 34.0425C45.4174 34.017 45.154 33.4978 44.8652 32.8936C44.5679 32.2893 44.262 31.634 44.1686 31.4468C44.0836 31.2595 43.9137 30.8595 43.7863 30.5531C43.6673 30.2468 43.3615 29.3787 43.1066 28.6212C42.8517 27.8553 42.6479 27.1659 42.6479 27.0893C42.6479 27.0042 42.5544 26.6127 42.4355 26.2127C42.325 25.8127 42.1551 25.0723 42.0532 24.5531C41.9597 24.0425 41.8832 23.5659 41.8832 23.5148C41.8832 23.4553 41.9342 23.4042 41.9852 23.4042ZM2.98201 25.5404C3.01599 25.5319 3.01599 25.6 2.999 25.6851C2.98201 25.7617 2.90555 26.0765 2.83759 26.3829C2.76962 26.6893 2.64219 27.1319 2.55723 27.3617C2.47228 27.6 2.32785 28.0085 2.2429 28.2893C2.14944 28.5617 2.05599 28.8 2.01352 28.817C1.97953 28.834 1.95405 28.2553 1.95405 26.2127L2.43829 25.8808C2.71015 25.6936 2.95652 25.5404 2.98201 25.5404ZM44.9671 25.5829C45.0266 25.617 45.273 25.7702 45.9611 26.2127V27.4468C45.9611 28.3744 45.9356 28.6808 45.8507 28.6808C45.7997 28.6808 45.6808 28.4765 45.5958 28.2297C45.5194 27.9914 45.3155 27.3276 45.154 26.7659C44.9926 26.2042 44.8567 25.6936 44.8652 25.634C44.8652 25.5744 44.9162 25.5489 44.9671 25.5829ZM5.78555 40.2553C5.82803 40.2553 5.86201 40.6808 5.86201 41.217C5.86201 41.7361 5.92148 42.3829 5.98095 42.6383C6.04891 42.8936 6.15936 43.3191 6.22732 43.5744C6.29529 43.8297 6.43121 44.2383 6.53316 44.468C6.63511 44.7063 6.83051 45.1063 6.96644 45.3617C7.10236 45.617 7.21281 45.8808 7.2213 45.9404C7.2213 46.017 7.00891 46.0425 5.64962 46.051L5.36077 45.3872C5.20785 45.0212 4.97847 44.417 4.85953 44.0425C4.74059 43.668 4.60467 43.0723 4.45175 42.0851L4.82555 41.5319C5.02944 41.2255 5.22484 40.9617 5.25883 40.9361C5.29281 40.9106 5.40325 40.7489 5.51369 40.5787C5.61564 40.4 5.73458 40.2553 5.78555 40.2553ZM42.291 40.451C42.376 40.5531 42.6224 40.9021 42.8348 41.234C43.0471 41.5659 43.268 41.8723 43.336 41.9319C43.4209 42.0085 43.4379 42.1361 43.387 42.4425C43.353 42.6638 43.251 43.1574 43.1576 43.5319C43.0641 43.9063 42.8687 44.5191 42.7243 44.8936C42.5799 45.268 42.4015 45.6765 42.325 45.8127C42.1806 46.0425 42.1636 46.0425 41.3905 46.0425C40.9657 46.0425 40.6089 46.0255 40.6089 46C40.6089 45.9744 40.7703 45.6425 40.9657 45.2595C41.1611 44.868 41.416 44.3063 41.5264 44C41.6369 43.6936 41.7983 43.0638 41.8748 42.5957C41.9597 42.1276 42.0532 41.4127 42.0871 41.0042C42.1381 40.2638 42.1381 40.2553 42.291 40.451ZM44.279 43.1404L44.5763 43.5063C44.7378 43.7106 45.1201 44.1191 45.9611 44.9787V46.0425H43.3275L43.5059 45.6C43.5994 45.3531 43.7268 44.9957 43.7948 44.8085C43.8542 44.6212 43.9477 44.3319 43.9902 44.1702C44.0411 44.0085 44.1261 43.7106 44.1771 43.5063L44.279 43.1404ZM3.5767 43.234C3.61918 43.234 3.65316 43.2936 3.65316 43.3617C3.65316 43.4297 3.75511 43.8042 3.87405 44.1872C3.99298 44.5787 4.18838 45.1148 4.29883 45.3787C4.40927 45.651 4.50272 45.9063 4.50272 45.9574C4.50272 46.0085 4.01847 46.0425 1.95405 46.0425V45.5063C1.95405 45.0468 1.97953 44.9531 2.17493 44.7659C2.29387 44.6468 2.64219 44.2553 2.94803 43.8893C3.24537 43.5319 3.53422 43.234 3.5767 43.234Z" fill="#F0F0F0"/>
<path fill-rule="evenodd" clip-rule="evenodd" d="M11.0525 1.8724H11.9785L11.9276 2.15325C11.8936 2.29793 11.7831 2.65538 11.6727 2.93623C11.5623 3.21708 11.4688 3.4724 11.4688 3.51496C11.4688 3.549 11.3754 3.77027 11.2564 4.00006C11.1375 4.23836 11.044 4.47666 11.044 4.53623C11.044 4.5873 10.7212 5.26815 10.3304 6.04262C9.9481 6.81708 9.53182 7.59155 9.42137 7.76176C9.31093 7.93198 9.00537 8.40846 8.75051 8.81698C8.49564 9.22549 7.88368 10.1022 7.39093 10.7575C6.74527 11.6256 6.04863 12.4171 4.84226 13.6256C3.93323 14.5362 2.92226 15.4894 1.99624 16.1873L1.91129 15.0213L2.4635 14.5618C2.76934 14.315 3.59341 13.5235 4.29005 12.8171C4.99518 12.1022 5.85352 11.1404 6.20183 10.6808C6.55015 10.2127 6.86449 9.81272 6.89847 9.78719C6.93245 9.76166 7.16183 9.43825 7.4252 9.06378C7.68006 8.68932 8.05387 8.10208 8.25776 7.76166C8.46166 7.42123 8.72474 6.96176 8.85217 6.74049C8.9796 6.51921 9.33642 5.82985 9.64226 5.20857C9.9481 4.59581 10.1945 4.02559 10.1945 3.95751C10.1945 3.88942 10.2372 3.81272 10.2797 3.78719C10.3307 3.76166 10.4493 3.48942 10.5513 3.16602C10.6532 2.85113 10.8062 2.4341 10.8911 2.22985L11.0525 1.8724ZM8.09606 1.8724H8.58881C8.86916 1.8724 9.09005 1.88942 9.09005 1.89793C9.09005 1.90644 9.00509 2.1873 8.89465 2.5107C8.78421 2.84262 8.62279 3.30219 8.52934 3.53198C8.44438 3.77027 8.08757 4.53623 7.73925 5.2341C7.39943 5.94049 7.05989 6.5957 7.00042 6.68081C6.93245 6.77442 6.55865 7.35315 6.15086 7.9574C5.74307 8.57017 4.98668 9.56602 4.45996 10.1703C3.94173 10.783 3.19412 11.5745 2.79483 11.9405C2.40403 12.2979 2.05571 12.5958 2.02173 12.5958C1.98775 12.5958 1.94527 12.3235 1.91129 11.3703L2.24261 11.0724C2.42952 10.9022 2.98201 10.3319 3.47475 9.78719C3.959 9.25102 4.5789 8.5107 4.83376 8.14474C5.09713 7.77879 5.49642 7.20857 5.7173 6.86815C5.93819 6.53623 6.18484 6.12761 6.27829 5.9574C6.36325 5.7957 6.66881 5.20006 6.94916 4.63836C7.22952 4.07666 7.52686 3.44687 7.60332 3.2341C7.67978 3.02985 7.82421 2.63836 7.91766 2.36602L8.09606 1.8724ZM17.849 1.8724L17.7725 2.10219C17.73 2.23836 17.5941 2.64687 17.4667 3.02134C17.3393 3.39581 17.2033 3.73623 17.1608 3.7873C17.1184 3.82985 17.0844 3.94049 17.0844 4.01708C17.0844 4.10219 17.0079 4.33198 16.923 4.52772C16.8295 4.73198 16.5152 5.42985 16.2263 6.08517C15.9375 6.74049 15.513 7.64251 15.2751 8.08506C15.0457 8.52761 14.6462 9.25964 14.3913 9.70219C14.1364 10.1447 13.7286 10.8256 13.4908 11.2001C13.2444 11.583 12.8621 12.1788 12.6327 12.5192C12.4033 12.8681 12.1909 13.166 12.1654 13.1916C12.1315 13.2171 11.8596 13.583 11.5623 14.0001C11.2649 14.4171 10.9166 14.8767 10.7892 15.0213C10.6617 15.1575 10.2624 15.6426 9.89713 16.0852C9.53182 16.5277 8.68226 17.4639 8.00261 18.1618C7.31447 18.8596 6.16757 19.9235 5.44544 20.5277C4.72332 21.132 3.83129 21.8469 3.45748 22.1107C3.09217 22.383 2.60792 22.7235 1.96226 23.149L1.93677 22.5703C1.91978 22.0681 1.93677 21.983 2.10668 21.8724C2.20863 21.8043 2.60792 21.515 2.99872 21.2341C3.38102 20.9447 4.1966 20.2979 4.80828 19.7873C5.41146 19.2681 6.37146 18.3916 6.94067 17.8299C7.50137 17.2681 8.23199 16.5022 8.55482 16.1277C8.87766 15.7447 9.33642 15.2086 9.58279 14.9362C9.82067 14.6554 10.3304 14.0086 10.7212 13.4894C11.1035 12.9703 11.5962 12.2894 11.8086 11.966C12.021 11.6426 12.3269 11.1916 12.4713 10.9703C12.6242 10.7405 12.7516 10.5362 12.7516 10.5107C12.7516 10.4852 12.8451 10.3405 12.964 10.1873C13.0745 10.0426 13.1679 9.88942 13.1764 9.84687C13.1764 9.81283 13.3378 9.53198 13.5247 9.20857C13.7201 8.89368 14.0939 8.21283 14.3658 7.70219C14.6292 7.18304 15.0709 6.26389 15.3343 5.65964C15.6062 5.04687 15.895 4.38304 15.98 4.17027C16.0734 3.95751 16.2603 3.48942 16.3962 3.12347C16.5407 2.76602 16.6511 2.40857 16.6511 2.33198C16.6511 2.26389 16.6851 2.12772 16.7361 2.0341C16.8125 1.90644 16.9315 1.8724 17.849 1.8724ZM20.3977 1.8724L20.2277 2.40006C20.1428 2.69793 19.9477 3.25953 19.8032 3.65953C19.6588 4.05953 19.4886 4.5107 19.4207 4.65538C19.3442 4.80857 19.2932 4.96176 19.2932 4.99581C19.2932 5.03836 19.1573 5.37027 18.9959 5.74474C18.826 6.11921 18.6394 6.53612 18.5714 6.68081C18.5034 6.81698 18.1973 7.45538 17.8915 8.08517C17.5771 8.71496 17.1863 9.49793 17.0079 9.82985C16.8295 10.1533 16.5494 10.6553 16.3795 10.9361C16.2096 11.217 15.9378 11.6765 15.7679 11.9574C15.5979 12.2383 15.2833 12.7405 15.0624 13.0809C14.8416 13.4128 14.4171 14.0425 14.1197 14.4851C13.8224 14.9191 13.5335 15.3106 13.4825 15.3617C13.4316 15.4127 13.1512 15.7531 12.3526 16.8085L12.3014 19.0213C12.2759 20.2894 12.1997 21.634 12.1148 22.1702C12.0468 22.6893 11.9448 23.4553 11.9024 23.8723C11.8599 24.2893 11.7407 25.0213 11.6472 25.4894C11.5538 25.9575 11.3756 26.7829 11.2482 27.3191C11.1293 27.8553 10.9339 28.6212 10.8149 29.0212C10.7045 29.4212 10.5006 30.0936 10.3647 30.5106C10.2372 30.9276 10.0246 31.566 9.90562 31.915C9.78668 32.2639 9.60828 32.715 9.51483 32.9107C9.42987 33.115 9.35341 33.3022 9.35341 33.3362C9.35341 33.3788 9.23447 33.6682 9.09005 34.0001C8.94562 34.332 8.73351 34.7829 8.62307 35.0212C8.52113 35.251 8.27447 35.7533 8.09606 36.1277C7.90916 36.5022 7.63759 37.0383 7.48466 37.3191C7.33174 37.6 7.11058 38.2128 6.99164 38.6809C6.81323 39.3788 6.77104 39.7276 6.77104 40.6383C6.77104 41.5574 6.81323 41.8979 7.00014 42.6554C7.12757 43.166 7.33146 43.8128 7.4504 44.1022C7.56934 44.4001 7.8412 44.9362 8.04509 45.2937C8.24898 45.6596 8.4189 45.9745 8.4189 46.0001C8.4189 46.0256 8.16403 46.0426 7.27199 46.0341L7.00014 45.4639C6.84721 45.149 6.64332 44.6979 6.54137 44.4682C6.43943 44.2299 6.3035 43.8299 6.23553 43.5745C6.15907 43.3192 6.05713 42.8937 5.98916 42.6384C5.92969 42.383 5.87022 41.7362 5.87022 41.2086C5.87022 40.6299 5.83652 40.2553 5.78555 40.2553C5.73458 40.2553 5.61536 40.4001 5.51341 40.5703C5.41146 40.749 5.30102 40.9107 5.26704 40.9362C5.23306 40.9618 5.03766 41.2256 4.45996 42.0852L4.56191 42.7235C4.61288 43.0724 4.7573 43.6852 4.88474 44.0852C5.01217 44.4852 5.23306 45.0639 5.36899 45.3788C5.50491 45.7022 5.61536 45.9745 5.61536 46.0001C5.61536 46.0256 5.37748 46.0426 4.55341 46.0426L4.33252 45.4639C4.20509 45.149 4.00969 44.5788 3.88226 44.1873C3.76332 43.8043 3.66137 43.4299 3.66137 43.3618C3.66137 43.2937 3.61918 43.234 3.5767 43.234C3.52573 43.234 3.24537 43.5319 2.94803 43.8893C2.65068 44.2553 2.30208 44.6469 1.96226 44.9788L1.94527 44.2299C1.92828 43.8213 1.93677 43.4894 1.96226 43.4894C1.98775 43.4979 2.25111 43.2001 2.55695 42.8426C2.86279 42.4852 3.32155 41.8979 3.59341 41.5405C3.85677 41.183 4.16261 40.783 4.27306 40.6384C4.375 40.5022 4.59589 40.2043 4.74031 39.983C4.89323 39.7533 5.02067 39.549 5.01217 39.5064C5.01217 39.4724 5.08014 39.3873 5.1566 39.3192C5.23306 39.2511 5.36899 39.0554 5.45394 38.8937C5.5389 38.732 5.70881 38.4426 5.81925 38.2554C5.93819 38.0682 6.26952 37.4724 6.56686 36.9362C6.86421 36.4001 7.24651 35.6511 7.42491 35.2767C7.61182 34.9022 7.80721 34.4767 7.86668 34.3405C7.92615 34.2043 8.05359 33.915 8.14704 33.7022C8.24049 33.4894 8.40191 33.0894 8.50385 32.8086C8.6058 32.5277 8.72474 32.2639 8.76721 32.2128C8.80969 32.1618 8.84367 32.0681 8.84367 32.0001C8.84367 31.932 8.95412 31.583 9.09005 31.2341C9.22598 30.8852 9.42987 30.2894 9.54881 29.915C9.66775 29.5405 9.85465 28.8681 9.97359 28.4256C10.0925 27.983 10.2794 27.1745 10.4069 26.6384C10.5258 26.1022 10.7042 25.2426 10.7977 24.7235C10.8996 24.2043 11.01 23.3873 11.061 22.8937C11.1035 22.4001 11.18 21.6767 11.2224 21.2767C11.2649 20.8767 11.3329 20.0341 11.3584 19.4043C11.4008 18.7235 11.3923 18.2299 11.3414 18.1958C11.2989 18.1618 10.9761 18.4511 9.97359 19.532L9.87164 21.0639C9.81217 21.9064 9.67624 23.1916 9.5573 23.915C9.44686 24.6384 9.23447 25.7533 9.09005 26.383C8.95412 27.0128 8.74173 27.8554 8.62279 28.2554C8.51235 28.6554 8.25748 29.4554 8.06208 30.0426C7.87518 30.6299 7.67978 31.2256 7.62881 31.3618C7.58633 31.4979 7.4504 31.8213 7.33996 32.0596C7.22952 32.3064 7.14456 32.5362 7.14456 32.5703C7.14456 32.6128 6.99164 32.9873 6.79624 33.4043C6.60084 33.8213 6.27801 34.5192 6.06562 34.9362C5.85323 35.3533 5.58137 35.8894 5.45394 36.1277C5.32651 36.3575 5.04615 36.8426 4.84226 37.1916C4.63837 37.5405 4.41748 37.8894 4.34952 37.9575C4.29005 38.0256 4.16261 38.2213 4.07766 38.383C3.9927 38.5447 3.8058 38.8341 3.66987 39.0213C3.52545 39.2086 3.2366 39.6086 3.0327 39.915C2.82031 40.2213 2.48899 40.6384 1.97075 41.2341L1.94527 40.4426C1.92828 40.0171 1.94527 39.6511 1.97075 39.6341C1.99624 39.6256 2.15766 39.4213 2.32757 39.1916C2.49748 38.9533 2.78633 38.5362 2.97323 38.2554C3.16014 37.9745 3.38102 37.6511 3.46598 37.532C3.55093 37.4213 3.78881 37.0384 3.9927 36.6809C4.1966 36.332 4.44297 35.8894 4.53642 35.7022C4.62987 35.515 4.73182 35.3447 4.7658 35.3192C4.79978 35.2937 5.03766 34.8341 5.29252 34.2979C5.55589 33.7618 5.89571 33.0128 6.05713 32.6384C6.22704 32.2639 6.44792 31.7277 6.54987 31.4469C6.65182 31.166 6.80474 30.766 6.88969 30.5533C6.96615 30.3405 7.15306 29.7873 7.29748 29.3192C7.43341 28.8511 7.62881 28.2043 7.73076 27.8724C7.82421 27.5405 7.91766 27.183 7.94314 27.0639C7.96863 26.9447 8.07058 26.5022 8.16403 26.0852C8.26598 25.6681 8.38491 25.0894 8.4189 24.8086C8.46137 24.5277 8.56332 23.8384 8.65677 23.2767C8.75022 22.715 8.84368 21.9064 8.88615 20.7064L8.04509 21.4809C7.58633 21.9064 7.19553 22.2894 7.17854 22.3405C7.17005 22.3916 7.0596 23.0384 6.93217 23.7873C6.80474 24.5362 6.59235 25.6511 6.44792 26.2554C6.31199 26.8596 6.1166 27.6256 6.02314 27.9575C5.9212 28.2894 5.75129 28.7916 5.64084 29.0809C5.5389 29.3788 5.44544 29.6767 5.44544 29.7447C5.44544 29.8128 5.35199 30.0767 5.23306 30.315C5.11412 30.5618 5.02095 30.8 5.01245 30.851C5.01245 30.9021 4.91022 31.166 4.79129 31.4469C4.66385 31.7277 4.3835 32.3405 4.17111 32.8086C3.95022 33.2767 3.59341 33.966 3.38952 34.3405C3.17713 34.715 2.92226 35.1745 2.81182 35.3618C2.70137 35.549 2.54845 35.7958 2.47199 35.915C2.38704 36.0341 2.25111 36.2469 2.00474 36.6384L1.96226 35.7447C1.93677 35.2511 1.93677 34.8341 1.96226 34.8086C1.98775 34.783 2.0812 34.6469 2.17465 34.5107C2.2681 34.3745 2.64191 33.6596 2.99022 32.9362C3.34704 32.2128 3.73783 31.3873 3.85677 31.1064C3.97571 30.8256 4.14562 30.4001 4.23907 30.1703C4.33252 29.932 4.54491 29.3447 4.70633 28.8511C4.86775 28.3575 5.09713 27.6086 5.21606 27.1916C5.335 26.7745 5.52191 25.983 5.64084 25.4469C5.75978 24.9107 5.87872 24.2979 5.90421 24.0852C5.9212 23.8724 5.97217 23.583 6.07412 23.1916L5.60686 23.583C5.35199 23.7958 4.94421 24.1107 4.69783 24.2809C4.35801 24.5192 4.23907 24.6724 4.17111 24.9107C4.12014 25.0894 4.08615 25.3107 4.08615 25.4043C4.08615 25.4979 3.9927 25.9235 3.87376 26.3405C3.75483 26.7575 3.55943 27.4299 3.43199 27.8299C3.31306 28.2299 3.16014 28.6724 3.10067 28.8086C3.0412 28.9447 2.93925 29.2341 2.87129 29.4469C2.80332 29.6596 2.6589 30.0171 2.55695 30.2554C2.455 30.4852 2.28509 30.8426 2.00474 31.4128L1.96226 30.1958C1.92828 29.3533 1.94527 28.9362 2.01323 28.8511C2.0727 28.783 2.18314 28.5107 2.2596 28.2554C2.34456 28.0001 2.47199 27.6341 2.53996 27.4469C2.60792 27.2596 2.75235 26.7575 2.85429 26.3405C2.95624 25.9235 3.0327 25.5575 3.01571 25.532C2.99872 25.5064 2.91376 25.549 2.82881 25.6256C2.75235 25.6937 2.52297 25.8554 1.96226 26.2128L1.93677 25.583C1.92828 25.2341 1.94527 24.9703 1.97925 24.9873C2.02173 25.0043 2.14916 24.9362 2.2766 24.8256C2.41252 24.715 2.77783 24.4511 3.10916 24.2299C3.43199 24.0086 4.12863 23.4894 4.64686 23.0809C5.16509 22.6724 6.08261 21.8979 6.6858 21.3533C7.28899 20.8086 8.19801 19.9235 8.71624 19.3958C9.23447 18.8596 10.0076 18.0256 10.4493 17.532C10.8826 17.0384 11.5368 16.2639 11.8936 15.7958C12.2504 15.3362 12.7771 14.6298 13.066 14.2213C13.3548 13.8213 13.7201 13.2937 13.8816 13.0639C14.043 12.8256 14.3576 12.3489 14.5785 12C14.8079 11.651 15.0797 11.2255 15.1732 11.0638C15.2751 10.9021 15.5637 10.4001 15.8016 9.95751C16.0479 9.51496 16.2773 9.08942 16.3198 9.02134C16.3623 8.95325 16.6511 8.37453 16.9654 7.74474C17.2713 7.11496 17.5771 6.50219 17.6366 6.38304C17.6961 6.26389 17.8745 5.84687 18.0359 5.44687C18.2058 5.04687 18.4522 4.4341 18.5881 4.08517C18.7325 3.73623 18.9534 3.14049 19.0808 2.76602C19.2083 2.39155 19.3272 2.0341 19.3442 1.97453C19.3612 1.90644 19.5481 1.8724 20.3977 1.8724ZM5.78527 1.8724C6.06562 1.8724 6.295 1.89793 6.295 1.93198C6.295 1.97453 6.15058 2.36602 5.98916 2.80857C5.81925 3.25113 5.62385 3.69368 5.56438 3.7873C5.49642 3.88091 5.44573 4.00846 5.44573 4.05953C5.44573 4.1191 5.28403 4.45964 5.08014 4.81708C4.88474 5.16602 4.68084 5.52347 4.63837 5.60857C4.58739 5.68517 4.41776 5.9574 4.25635 6.21272C4.09493 6.46804 3.94201 6.69783 3.91652 6.72336C3.88254 6.74889 3.68714 7.01272 3.47475 7.3191C3.25387 7.62549 2.8373 8.13623 2.00474 9.05538L1.96226 8.33198C1.92828 7.74474 1.94527 7.59155 2.05571 7.48942C2.13217 7.42134 2.40403 7.08942 2.6589 6.76602C2.91376 6.4341 3.27086 5.92336 3.44927 5.61698C3.63617 5.31059 3.81458 5.04676 3.84006 5.02123C3.86555 4.9957 3.9675 4.82549 4.06095 4.63825C4.1544 4.45102 4.29005 4.17879 4.36651 4.04262C4.44297 3.89793 4.61288 3.54049 4.74881 3.2341C4.89323 2.92772 5.04615 2.52772 5.10562 2.34049C5.16509 2.15325 5.22456 1.97453 5.25005 1.93198C5.26704 1.89793 5.51341 1.8724 5.78527 1.8724ZM13.8646 1.8724H14.3743C14.6462 1.8724 14.8755 1.90644 14.8755 1.95751C14.8755 2.00006 14.7906 2.26389 14.6971 2.52772C14.6037 2.80006 14.4256 3.28506 14.2981 3.61698C14.1792 3.94038 13.992 4.41708 13.8816 4.65538C13.7711 4.90219 13.6862 5.12347 13.6862 5.149C13.6862 5.17453 13.4061 5.75315 13.0663 6.434C12.7349 7.12336 12.4033 7.7873 12.3354 7.90645C12.2759 8.02559 12.055 8.40857 11.8511 8.74049C11.6472 9.08091 11.4773 9.3873 11.4773 9.42134C11.4773 9.46389 11.4093 9.56602 11.3329 9.65964C11.2479 9.75325 11.027 10.0767 10.8401 10.383C10.6532 10.6894 10.3304 11.1745 10.118 11.4724C9.90562 11.7618 9.25996 12.6043 8.68226 13.3447C8.09606 14.0767 7.05111 15.2596 6.34598 15.966C5.64084 16.6724 4.74031 17.515 4.34102 17.8384C3.94173 18.1618 3.46598 18.5447 3.27907 18.6809C3.09217 18.8171 2.89677 18.9703 2.85429 19.0299C2.80332 19.0809 2.59093 19.2426 1.96226 19.6596L1.93677 19.0299C1.92828 18.6809 1.93677 18.4086 1.96226 18.4341C1.98775 18.4511 2.15766 18.3405 2.34456 18.1958C2.53146 18.0426 3.14314 17.532 3.70385 17.0639C4.26456 16.5958 5.15688 15.7702 5.6836 15.234C6.21882 14.6978 6.94067 13.8979 7.29748 13.4554C7.6543 13.0128 8.0281 12.5703 8.12155 12.4681C8.215 12.3745 8.58031 11.8979 8.92863 11.4213C9.27695 10.9362 9.61677 10.4596 9.68474 10.3575C9.7527 10.2554 9.99907 9.88942 10.22 9.549C10.4408 9.21708 10.6277 8.91921 10.6277 8.89368C10.6277 8.86815 10.7894 8.5957 10.9763 8.27229C11.1717 7.9574 11.5116 7.35315 11.7325 6.93612C11.9533 6.51059 12.3186 5.77017 12.5395 5.27655C12.7604 4.78293 12.981 4.26389 13.049 4.12772C13.1085 3.98304 13.2699 3.56602 13.4058 3.19155C13.5502 2.81708 13.7116 2.36602 13.7626 2.1873L13.8646 1.8724ZM28.5109 1.8724L28.7403 2.53623C28.8677 2.90219 29.0462 3.42134 29.1481 3.70219C29.25 3.98304 29.4115 4.38304 29.4964 4.57879C29.5814 4.77453 29.6578 4.97879 29.6578 5.02134C29.6578 5.0724 29.7173 5.21708 29.7853 5.34474C29.8532 5.4724 30.1084 6.01697 30.3463 6.55315C30.5926 7.09783 31.0429 8.01698 31.3402 8.5957C31.6461 9.18293 31.9856 9.79581 32.0961 9.95751C32.2065 10.1277 32.2917 10.2978 32.2917 10.3404C32.2917 10.3914 32.3512 10.4851 32.4107 10.5531C32.4786 10.6297 32.6313 10.8767 32.7672 11.1064C32.8947 11.3447 33.4384 12.1873 33.9736 12.9788C34.5088 13.7788 35.1887 14.7574 35.4861 15.1489C35.7919 15.5489 36.1997 16.068 36.4036 16.2978C36.6075 16.5361 37.0745 17.0894 37.4398 17.532C37.8051 17.983 38.7396 18.9788 39.5127 19.7533C40.2858 20.5277 41.4667 21.6256 42.1463 22.1873C42.826 22.749 43.7013 23.4468 44.1006 23.7361C44.4999 24.0255 45.0433 24.4171 45.3152 24.6043C45.5785 24.7916 45.8422 24.9361 45.8847 24.9361C45.9356 24.9361 45.9693 25.2086 45.9693 25.5745C45.9693 26.0681 45.9439 26.2043 45.8674 26.1533C45.8079 26.1192 45.57 25.966 45.3322 25.8128C45.1028 25.6596 44.8989 25.566 44.8819 25.6001C44.8649 25.6341 44.9329 25.9745 45.0348 26.3405C45.1368 26.715 45.3322 27.3873 45.4851 27.8299C45.638 28.2809 45.8079 28.6724 45.8674 28.7064C45.9439 28.749 45.9693 29.1235 45.9693 30.0852C45.9693 30.8171 45.9439 31.4128 45.9099 31.4128C45.8674 31.4128 45.7909 31.2852 45.7315 31.132C45.6635 30.9788 45.5615 30.7575 45.5021 30.6384C45.4426 30.5277 45.2557 30.0852 45.0943 29.6596C44.9244 29.2426 44.78 28.8596 44.78 28.8086C44.78 28.766 44.6865 28.4767 44.5761 28.1703C44.4656 27.8724 44.2787 27.2767 44.1598 26.8511C44.0408 26.4341 43.8709 25.7703 43.786 25.3788C43.6331 24.6724 43.6331 24.6639 43.1233 24.2554C42.843 24.0341 42.5031 23.7533 42.3587 23.6341C42.2228 23.515 42.0529 23.4128 42.0019 23.4128C41.9424 23.4128 41.8915 23.4554 41.8915 23.515C41.8915 23.5745 41.9679 24.0426 42.0699 24.5533C42.1633 25.0724 42.3332 25.8213 42.4522 26.2128C42.5626 26.6128 42.6561 27.0043 42.6561 27.0894C42.6561 27.1745 42.8685 27.8639 43.1148 28.6213C43.3697 29.3788 43.6755 30.2554 43.803 30.5533C43.9219 30.8596 44.0918 31.2681 44.1768 31.4469C44.2702 31.6341 44.5846 32.2894 44.8734 32.8937C45.1708 33.5064 45.4596 34.0511 45.5191 34.1107C45.5785 34.1703 45.6295 34.2554 45.6295 34.2979C45.6295 34.349 45.706 34.4596 45.7994 34.5533C45.9523 34.715 45.9693 34.8256 45.9269 36.7235L45.706 36.383C45.587 36.2043 45.4171 35.915 45.3237 35.7447C45.2387 35.583 45.1368 35.4299 45.1113 35.4043C45.0773 35.3873 44.9414 35.1575 44.797 34.8937C44.661 34.6384 44.3042 33.949 44.0154 33.3618C43.7265 32.783 43.3952 32.1107 43.2847 31.8724C43.1743 31.6426 43.0808 31.3873 43.0808 31.3022C43.0808 31.2171 43.0554 31.1405 43.0214 31.1235C42.9789 31.1064 42.8854 30.9022 42.8005 30.6724C42.7155 30.4426 42.5541 30.0086 42.4437 29.7022C42.3332 29.4043 42.1463 28.8256 42.0274 28.4256C41.917 28.0341 41.7216 27.3618 41.5941 26.9362C41.4752 26.5192 41.3392 25.9235 41.2883 25.6171C41.2373 25.3192 41.1439 24.8426 41.0759 24.5533C41.0079 24.2724 40.9145 23.6767 40.787 22.383L39.878 21.4979C39.3683 21.0128 38.952 20.6213 38.9435 20.6298C38.9435 20.6384 38.986 21.2001 39.0539 21.8724C39.1219 22.5533 39.2748 23.6681 39.3938 24.3405C39.5127 25.0213 39.7081 26.0001 39.827 26.5107C39.946 27.0299 40.1329 27.7788 40.2518 28.1703C40.3623 28.5703 40.5152 29.0724 40.5916 29.2767C40.6681 29.4894 40.77 29.8384 40.8295 30.0426C40.889 30.2554 41.0419 30.6979 41.1693 31.0213C41.3053 31.3533 41.5007 31.8213 41.6111 32.0681C41.7131 32.315 41.8065 32.5362 41.8065 32.5533C41.8065 32.5788 41.9254 32.8596 42.0699 33.1745C42.2143 33.4894 42.4692 34.0171 42.6221 34.3405C42.7835 34.6724 42.9449 34.9958 42.9874 35.0639C43.0299 35.1405 43.2932 35.6001 43.5566 36.0852C43.8285 36.5788 44.1258 37.0554 44.2108 37.149C44.2872 37.2511 44.3552 37.3533 44.3552 37.3873C44.3552 37.4213 44.4826 37.6341 44.6355 37.8639C44.78 38.0937 45.1113 38.5703 45.3577 38.9277C45.5955 39.2852 45.8419 39.5575 45.8844 39.532C45.9354 39.5064 45.9693 39.8299 45.9693 40.4086C45.9693 40.9107 45.9608 41.3022 45.9438 41.2767C45.9269 41.2596 45.6635 40.9277 45.3662 40.5533C45.0688 40.1873 44.5251 39.4469 44.1598 38.9192C43.803 38.3916 43.5056 37.9405 43.5056 37.915C43.5056 37.8979 43.4207 37.7533 43.3187 37.6086C43.2083 37.4554 42.9789 37.0809 42.8005 36.7745C42.6306 36.4681 42.3842 36.0256 42.2738 35.7873C42.1548 35.5575 42.0019 35.2682 41.9254 35.149C41.8575 35.0384 41.5941 34.4937 41.3393 33.9405C41.0844 33.3873 40.872 32.9192 40.872 32.8937C40.872 32.8767 40.7955 32.6894 40.7106 32.4937C40.6171 32.2979 40.4897 31.9745 40.4217 31.7873C40.3538 31.6086 40.1499 31.0128 39.963 30.4681C39.7761 29.932 39.5212 29.166 39.3938 28.766C39.2748 28.3745 39.1729 28.0001 39.1729 27.9405C39.1729 27.8809 39.0794 27.4979 38.969 27.0894C38.8585 26.6809 38.6716 25.8043 38.5527 25.149C38.4253 24.5022 38.2554 23.3107 38.1619 22.5107C38.0685 21.7192 37.9665 20.7235 37.8731 19.532L37.2274 18.8086C36.8026 18.3235 36.5732 18.1192 36.5562 18.2128C36.5392 18.2809 36.5647 19.166 36.6157 20.1703C36.6582 21.183 36.7771 22.5618 36.8791 23.2341C36.981 23.915 37.1594 24.9703 37.2784 25.5745C37.3973 26.1873 37.5672 26.9958 37.6607 27.3618C37.7541 27.7362 37.8646 28.1788 37.8985 28.3405C37.9325 28.5107 38.043 28.9277 38.1534 29.2767C38.2639 29.6341 38.4253 30.1277 38.5102 30.383C38.6037 30.6469 38.7056 30.9703 38.7396 31.1064C38.7821 31.2511 38.8755 31.5235 38.9605 31.7022C39.037 31.8894 39.1559 32.2043 39.2154 32.383C39.2748 32.5703 39.4447 33.0128 39.5977 33.3618C39.7421 33.7192 39.9035 34.0426 39.946 34.0852C39.9885 34.1362 40.0224 34.2213 40.0224 34.2809C40.0224 34.3405 40.2518 34.8596 40.5322 35.4299C40.821 36.0001 41.1354 36.6299 41.2373 36.8086C41.3477 36.9958 41.6281 37.4979 41.8745 37.915C42.1208 38.3405 42.5201 38.9958 42.7665 39.3788C43.0129 39.7618 43.3782 40.315 43.5906 40.6128C43.803 40.9107 44.3722 41.6681 44.8649 42.2809C45.3577 42.9022 45.8079 43.4043 45.8674 43.4043C45.9439 43.4043 45.9693 43.6256 45.9693 44.9788L45.4256 44.4256C45.1283 44.1277 44.746 43.7107 44.2702 43.149L44.1853 43.515C44.1343 43.7107 44.0578 43.966 44.0154 44.0681C43.9644 44.1703 43.9304 44.3235 43.9304 44.4086C43.9304 44.4937 43.803 44.8852 43.3442 46.0001L42.792 46.0256C42.4607 46.0341 42.2313 46.0086 42.2313 45.9575C42.2313 45.915 42.2738 45.8554 42.3162 45.8298C42.3672 45.8128 42.5371 45.4384 42.6985 45.0043C42.86 44.5703 43.0639 43.932 43.1573 43.5745C43.2508 43.2256 43.3527 42.7405 43.3952 42.4937C43.4462 42.1447 43.4377 42.0171 43.3442 41.9405C43.2847 41.8809 42.9959 41.4809 42.1888 40.2469L42.1293 40.8682C42.0869 41.2171 42.0019 41.8979 41.9254 42.383C41.849 42.8767 41.6961 43.549 41.5771 43.8724C41.4582 44.2043 41.1863 44.8256 40.5746 46.0511H40.0054C39.6826 46.0511 39.4277 46.0256 39.4277 46.0001C39.4277 45.983 39.5552 45.7618 39.7166 45.515C39.878 45.2681 40.1077 44.8595 40.2181 44.5957C40.3371 44.3404 40.5155 43.9234 40.6174 43.6595C40.7194 43.4042 40.8808 42.7574 40.9657 42.2127C41.0592 41.6765 41.1269 40.9703 41.1269 40.6384C41.1269 40.315 41.0844 39.8299 41.0419 39.5575C40.9994 39.2852 40.923 38.8511 40.872 38.5788C40.8125 38.2554 40.5152 37.549 39.9885 36.4681C39.5467 35.583 39.0967 34.6468 38.9778 34.3829C38.8673 34.1276 38.6719 33.651 38.536 33.3191C38.4086 32.9957 38.2384 32.5533 38.1534 32.3405C38.0685 32.1362 37.8903 31.617 37.7459 31.1914C37.61 30.7744 37.3973 30.1022 37.2784 29.7022C37.1594 29.3107 36.9473 28.5446 36.8029 28C36.667 27.4638 36.4546 26.5276 36.3356 25.9148C36.2167 25.3106 36.0383 24.2553 35.9363 23.5744C35.8344 22.9021 35.724 21.7872 35.6815 21.1063C35.6475 20.434 35.6132 19.183 35.6047 16.8086L35.3244 16.5107C35.1715 16.349 34.696 15.7361 34.2712 15.1489C33.8549 14.5702 33.3962 13.9148 33.2602 13.7021C33.1243 13.4978 32.9969 13.3021 32.9629 13.2766C32.9374 13.2595 32.6571 12.817 32.3342 12.2978C32.0199 11.7872 31.6798 11.2341 31.5778 11.0639C31.4759 10.9022 31.34 10.6724 31.2805 10.5533C31.2125 10.4426 30.941 9.94038 30.6776 9.44676C30.4142 8.96166 30.0316 8.21283 29.8362 7.7873C29.6323 7.37028 29.352 6.75751 29.2161 6.42559C29.0801 6.10219 28.9272 5.79581 28.8847 5.74474C28.8423 5.70219 28.8083 5.61708 28.8083 5.55751C28.8083 5.49793 28.7318 5.28517 28.6469 5.08942C28.5619 4.89368 28.409 4.51921 28.3155 4.25538C28.2221 4.00006 28.0949 3.65953 28.0355 3.48932C27.976 3.32761 27.8401 2.94463 27.7296 2.63825C27.6277 2.34038 27.5342 2.04251 27.5342 1.98293C27.5342 1.90634 27.6869 1.8724 28.5109 1.8724ZM31.0596 1.8724L31.2125 2.23836C31.289 2.4341 31.3572 2.65527 31.3572 2.72336C31.3657 2.79995 31.4337 3.00421 31.5271 3.19144C31.6206 3.37868 31.6968 3.57453 31.6968 3.61708C31.6968 3.66815 31.8412 4.0341 32.0111 4.42559C32.1725 4.82559 32.4107 5.36166 32.5211 5.61698C32.6401 5.88081 33.0394 6.69783 33.4132 7.44676C33.787 8.1957 34.1693 8.9191 34.2542 9.04676C34.3477 9.17442 34.4156 9.30208 34.4156 9.3191C34.4156 9.34463 34.5003 9.48942 34.6108 9.64262C34.7127 9.79581 34.8656 10.0511 34.9591 10.2128C35.044 10.383 35.4008 10.9362 35.7407 11.4469C36.0805 11.966 36.6242 12.7405 36.9385 13.166C37.2614 13.5916 37.8985 14.4171 38.3573 14.9958C38.8246 15.5745 39.8783 16.7234 40.6939 17.5574C41.5179 18.3914 42.5116 19.3362 42.9109 19.6596C43.3102 19.983 43.9392 20.4851 44.313 20.7829C44.6868 21.0808 45.1793 21.4469 45.4001 21.6001C45.621 21.7533 45.8422 21.8723 45.8847 21.8723C45.9356 21.8723 45.9693 22.1447 45.9693 22.5107C45.9693 22.8852 45.9354 23.149 45.8844 23.149C45.8419 23.149 45.7824 23.1235 45.7739 23.0894C45.7569 23.0554 45.4596 22.8341 45.1113 22.6043C44.763 22.366 44.1428 21.915 43.718 21.583C43.3017 21.2596 42.7243 20.8 42.444 20.5617C42.1636 20.3319 41.0929 19.2937 40.0649 18.2639C39.0369 17.2341 37.9838 16.1191 37.7204 15.7872C37.4656 15.4638 37.0235 14.9107 36.7516 14.5618C36.4713 14.2128 36.038 13.6341 35.8001 13.2852C35.5538 12.9277 35.2054 12.4341 35.0355 12.1703C34.8656 11.915 34.5601 11.4553 34.3562 11.1489C34.1608 10.851 33.9994 10.5702 33.9909 10.5361C33.9909 10.5021 33.8974 10.3489 33.7785 10.1957C33.668 10.0425 33.5661 9.88932 33.5661 9.85527C33.5661 9.82123 33.4723 9.65113 33.3704 9.4724C33.26 9.29368 32.8522 8.51921 32.4699 7.74474C32.0791 6.97879 31.6801 6.15315 31.5696 5.91485C31.4677 5.68506 31.2805 5.25964 31.17 4.97879C31.0511 4.69793 30.8645 4.20421 30.7371 3.87229C30.6181 3.54889 30.4224 3.01283 30.3035 2.68091C30.1846 2.35751 30.0829 2.04251 30.0829 1.98293C30.0829 1.90634 30.2355 1.8724 31.0596 1.8724ZM33.0051 1.8724L34.0246 1.91496L34.3559 2.80857C34.5343 3.30219 34.7382 3.85538 34.8146 4.04262C34.8826 4.22985 35.01 4.56176 35.112 4.76602C35.2054 4.97879 35.5283 5.65113 35.8256 6.25538C36.123 6.86815 36.5565 7.69357 36.7859 8.08506C37.0238 8.48506 37.2447 8.85102 37.2786 8.89357C37.3211 8.94463 37.5165 9.25102 37.7119 9.57442C37.9158 9.90634 38.3151 10.5106 38.604 10.9106C38.8928 11.3191 39.4193 12.0256 39.7676 12.4852C40.1159 12.9447 41.2288 14.1703 42.2483 15.1916C43.5566 16.5192 44.3637 17.2681 45.9608 18.4256V19.0469C45.9693 19.3873 45.9523 19.6596 45.9269 19.6596C45.9014 19.6596 45.4766 19.3533 44.9754 18.9788C44.4656 18.6043 43.752 18.0171 43.3782 17.6852C43.0044 17.3533 42.2398 16.6128 41.6791 16.0511C41.1184 15.4894 40.4302 14.783 40.1499 14.4767C39.8695 14.1788 39.2836 13.4723 38.8503 12.9021C38.4256 12.3404 37.7201 11.3703 37.3039 10.749C36.8876 10.1277 36.5392 9.59155 36.5392 9.55751C36.5392 9.52347 36.4798 9.43836 36.4203 9.36176C36.3524 9.29368 36.2164 9.08091 36.1145 8.89368C36.004 8.70645 35.7067 8.15325 35.4348 7.65964C35.1715 7.17453 34.7127 6.22985 34.4239 5.57453C34.135 4.91921 33.821 4.21272 33.736 3.99995C33.651 3.7957 33.4896 3.35315 33.3707 3.02123C33.2602 2.69783 33.124 2.30644 33.0816 2.15325L33.0051 1.8724ZM36.3778 1.8724C36.8026 1.8724 36.8961 1.90644 36.9725 2.04261C37.015 2.13623 37.0575 2.2724 37.0575 2.34049C37.0575 2.41708 37.1085 2.59581 37.1764 2.749C37.2359 2.90219 37.4313 3.37027 37.6097 3.7873C37.7796 4.21283 38.043 4.80857 38.1874 5.10644C38.3233 5.41283 38.6547 6.04262 38.9095 6.5107C39.1644 6.97879 39.5467 7.63411 39.7591 7.95751C39.9715 8.28942 40.2433 8.70645 40.3623 8.89368C40.4812 9.08091 40.6001 9.25964 40.6256 9.27666C40.6511 9.30219 40.8975 9.62559 41.1608 10.0001C41.4327 10.3745 41.8745 10.9362 42.1378 11.2341C42.4012 11.5405 43.1488 12.332 43.803 12.9873C44.4656 13.6426 45.1877 14.3405 45.4256 14.5362C45.655 14.7405 45.8759 14.9022 45.9099 14.9022C45.9439 14.9022 45.9778 15.2171 45.9778 15.6001C45.9778 16.2639 45.9778 16.2979 45.8334 16.1703C45.7485 16.1022 45.638 16.0086 45.5955 15.9575C45.5446 15.9064 45.2047 15.6171 44.8309 15.3192C44.4571 15.0213 43.769 14.4086 43.3102 13.966C42.8515 13.515 42.0869 12.6894 41.6196 12.1277C41.1439 11.566 40.7361 11.0894 40.7106 11.0639C40.6851 11.0469 40.3283 10.5533 39.9205 9.98304C39.5127 9.41283 39.1729 8.9107 39.1729 8.87666C39.1729 8.84262 39.0879 8.69793 38.9775 8.55325C38.867 8.41708 38.4932 7.7873 38.1534 7.149C37.8051 6.51921 37.4398 5.82985 37.3378 5.61708C37.2359 5.41283 37.049 5.00432 36.93 4.72347C36.8026 4.44261 36.6072 3.96602 36.4883 3.65964C36.3693 3.36176 36.1824 2.84262 36.072 2.5107C35.9616 2.1873 35.8681 1.90644 35.8681 1.89793C35.8681 1.88942 36.0975 1.8724 36.3778 1.8724ZM38.7736 1.8724L39.8185 1.91496L39.9715 2.38304C40.0564 2.64687 40.3113 3.27666 40.5322 3.7873C40.7616 4.30644 41.1014 4.99581 41.2798 5.31921C41.4667 5.65113 41.6961 6.06815 41.8065 6.25538C41.9085 6.44262 42.2738 7.00432 42.5966 7.48942C42.9279 7.98304 43.2253 8.40857 43.2593 8.42559C43.2932 8.45113 43.5566 8.77453 43.8539 9.149C44.1513 9.52347 44.7205 10.1703 45.1198 10.5788C45.5191 10.9873 45.8759 11.3022 45.9099 11.2767C45.9439 11.2596 45.9778 11.566 45.9778 12.6809L45.74 12.5277C45.6125 12.4341 45.1453 12.0086 44.7035 11.566C44.2617 11.132 43.6331 10.4426 43.3017 10.0341C42.9704 9.6341 42.5456 9.09793 42.3502 8.84262C42.1548 8.59581 41.764 8.04262 41.4922 7.61708C41.2203 7.20006 40.7955 6.49368 40.5492 6.04262C40.3028 5.60006 39.9715 4.92772 39.8016 4.55325C39.6401 4.17879 39.4702 3.79581 39.4277 3.70219C39.3768 3.60857 39.2493 3.26815 39.1304 2.93623C39.0115 2.61283 38.884 2.23836 38.85 2.10219L38.7736 1.8724ZM42.1378 1.88091C42.5966 1.88091 42.6561 1.90644 42.6561 2.05113C42.6561 2.14474 42.6815 2.23836 42.7155 2.25538C42.7495 2.2724 42.809 2.40006 42.8515 2.53623C42.8854 2.66389 43.0723 3.10644 43.2593 3.49793C43.4462 3.89793 43.803 4.57027 44.0408 4.9873C44.2787 5.41283 44.644 5.98304 44.8479 6.26389C45.0603 6.54474 45.3492 6.93623 45.4936 7.14049C45.638 7.33623 45.7994 7.49793 45.8589 7.49793C45.9354 7.49793 45.9693 7.7107 45.9693 8.26389C45.9693 8.68942 45.9439 9.02985 45.9269 9.02985C45.9014 9.02985 45.5446 8.65538 45.1368 8.19581C44.729 7.73623 44.1428 6.97879 43.8285 6.51921C43.5226 6.05113 43.0384 5.20857 42.7495 4.64687C42.4692 4.08517 42.1548 3.43836 42.0529 3.20006C41.9509 2.97027 41.8405 2.66389 41.8065 2.51921C41.7725 2.38304 41.7131 2.17879 41.6791 2.07666C41.6196 1.88942 41.6366 1.88091 42.1378 1.88091Z" fill="#2E6A9B"/>
<path d="M23.4392 4.72345C23.6431 4.40005 23.8555 4.10217 23.898 4.06813C23.949 4.03409 24.0254 4.07664 24.0764 4.15324C24.1189 4.22983 24.7136 5.14047 25.3847 6.17026C26.0644 7.20005 27.0329 8.67239 27.5341 9.44685C28.0353 10.2213 28.5366 10.9617 28.63 11.1064C28.732 11.2511 29.0208 11.6852 29.2757 12.0852C29.5306 12.4852 29.8619 12.9958 30.0148 13.2256C30.1677 13.4554 30.4736 13.932 30.7114 14.2979C30.9408 14.6554 31.2976 15.2 31.493 15.4979C31.6799 15.7958 31.9263 16.1532 32.0198 16.2979C32.1217 16.4426 32.5635 17.1064 33.0137 17.7873C33.4555 18.4681 33.8123 19.0809 33.8123 19.149C33.8123 19.2171 33.7529 19.4724 33.6934 19.7022C33.6254 19.9405 33.464 20.5277 33.3451 21.0213C33.2176 21.5149 33.0562 22.1277 32.9883 22.383C32.9203 22.6383 32.8098 23.0809 32.7419 23.3618C32.6824 23.6426 32.555 24.1192 32.453 24.4256C32.3596 24.732 32.2831 25.0469 32.2831 25.132C32.2831 25.2086 32.1897 25.5745 32.0707 25.9405C31.9603 26.2979 31.8244 26.766 31.7819 26.9788C31.7394 27.1915 31.6205 27.6681 31.5185 28.0426C31.4166 28.4171 31.2467 29.0724 31.1362 29.4894C31.0258 29.9064 30.8389 30.6213 30.7199 31.0639C30.601 31.5064 30.4056 32.2724 30.2867 32.766C30.1592 33.2596 29.9893 33.9064 29.9044 34.2128C29.8109 34.5192 29.6835 35.0128 29.607 35.3192C29.5391 35.6256 29.3691 36.2894 29.2332 36.8086C29.0208 37.6256 29.0038 37.7788 29.0888 38.0426C29.1483 38.2043 29.3012 38.6894 29.4371 39.1064C29.5645 39.5235 29.7599 40.1362 29.8619 40.4681C29.9638 40.8 30.1507 41.4128 30.2867 41.8298C30.4141 42.2469 30.6095 42.8511 30.9238 43.7447H23.9999C17.9001 43.7447 17.076 43.7277 17.076 43.6171C17.076 43.549 17.2884 42.7915 17.5518 41.9405C17.8152 41.0809 18.121 40.1362 18.2314 39.8298C18.3419 39.5235 18.4353 39.2086 18.4353 39.132C18.4353 39.0469 18.5033 38.8171 18.5968 38.6213C18.6817 38.4171 18.7837 38.1022 18.8176 37.9149C18.8601 37.6596 18.8176 37.3532 18.6477 36.7235C18.5203 36.2554 18.3079 35.4894 18.1805 35.0213C18.053 34.5532 17.9256 34.0766 17.9001 33.9575C17.8831 33.8383 17.7217 33.2086 17.5433 32.5532C17.3734 31.8979 17.1185 30.9447 16.9826 30.4256L16.9676 30.3683C16.8344 29.8597 16.6746 29.2494 16.6173 28.9788C16.5493 28.6979 16.4389 28.2979 16.3624 28.0852C16.286 27.8724 16.2265 27.6256 16.2265 27.532C16.2265 27.4383 16.133 27.0383 16.0226 26.6383C15.9037 26.2383 15.7168 25.549 15.6063 25.1064C15.4874 24.6639 15.309 23.9915 15.207 23.6171C15.0966 23.2426 14.9776 22.766 14.9437 22.5532C14.9012 22.3405 14.7907 21.9235 14.7058 21.6171C14.6123 21.3107 14.4509 20.7575 14.349 20.383C14.247 20.0086 14.1451 19.549 14.1196 19.3617C14.0941 19.0894 14.1451 18.9277 14.3744 18.5447C14.5274 18.2894 14.7143 18 14.7822 17.9149C14.8502 17.8298 15.0626 17.5235 15.2495 17.2341C15.4364 16.9362 15.7252 16.4937 15.8867 16.2383C16.0481 15.983 16.235 15.7022 16.2944 15.6086C16.3454 15.5235 16.5408 15.2256 16.7192 14.9447C16.8891 14.6724 17.11 14.349 17.212 14.2213C17.3054 14.1022 17.5348 13.7532 17.7217 13.4469C17.9001 13.1405 18.087 12.8511 18.138 12.8C18.1805 12.7575 18.3844 12.4511 18.5883 12.1192C18.7921 11.7958 19.0215 11.4383 19.1065 11.3192C19.1914 11.2 19.6757 10.4766 20.1769 9.70217L20.262 9.57291C20.766 8.80707 21.4479 7.77099 21.8336 7.19154C22.2414 6.57877 22.6321 5.97452 22.7001 5.82983C22.7681 5.68515 22.887 5.51494 22.9465 5.44686C23.0144 5.37877 23.2353 5.05537 23.4392 4.72345Z" fill="#0D0D0E"/>
<path d="M13.6778 28.366C13.6693 28.3405 13.7713 28.1362 13.8987 27.9235L14.1366 27.532L14.2555 27.8298C14.3235 27.9915 14.4254 28.3575 14.4934 28.6383C14.5529 28.9192 14.7398 29.6256 14.8927 30.2128C15.0541 30.8 15.2325 31.4639 15.292 31.7022C15.3514 31.932 15.4874 32.4341 15.5978 32.8086C15.7083 33.183 15.8017 33.549 15.8017 33.6171C15.8017 33.6852 15.9037 34.0852 16.0226 34.5107C16.1415 34.9277 16.3284 35.6 16.4474 36C16.5578 36.4 16.6513 36.783 16.6513 36.8511C16.6513 36.9192 16.7277 37.2086 16.9656 38.0001L16.4474 38.4256C16.167 38.6554 15.5468 39.1575 15.0796 39.532C14.6038 39.9064 13.6693 40.6554 12.9897 41.2C12.3185 41.7447 11.384 42.5022 10.9168 42.8852C10.4495 43.2596 10.0417 43.5745 9.99923 43.5745C9.96525 43.5745 9.94825 41.8724 9.95675 36L11.8258 32.2128C12.8537 30.1277 13.6863 28.4 13.6778 28.366Z" fill="#0D0D0E"/>
<path d="M33.3281 28.8937C33.396 28.7064 33.4895 28.332 33.549 28.0681C33.6084 27.7447 33.6764 27.6 33.7444 27.6256C33.8038 27.6511 34.0757 28.1362 34.356 28.7064C34.6279 29.2766 35.4435 30.9532 36.1656 32.4256C36.8962 33.8979 37.5759 35.2766 37.8817 35.8724V39.7277C37.8902 41.8383 37.8562 43.5745 37.8222 43.5745C37.7883 43.5745 37.4569 43.3107 37.0831 42.9873C36.7093 42.6724 36.0212 42.1107 35.5624 41.7362C35.0952 41.3703 34.3306 40.7575 33.8548 40.383C33.3791 40.0086 32.7589 39.5064 32.487 39.2681C32.2067 39.0383 31.7479 38.6639 31.4506 38.4426C31.1617 38.2213 30.9238 37.9915 30.9238 37.9405C30.9238 37.8809 31.0173 37.5235 31.1277 37.149C31.2297 36.7745 31.3656 36.2979 31.4251 36.0852C31.476 35.8724 31.629 35.2852 31.7649 34.766C31.9008 34.2554 32.0622 33.6426 32.1387 33.4043C32.2067 33.1745 32.3086 32.7915 32.3681 32.5532C32.4275 32.3235 32.606 31.6511 32.7674 31.0639C32.9288 30.4766 33.0902 29.8298 33.1327 29.6171C33.1667 29.4043 33.2601 29.0809 33.3281 28.8937Z" fill="#0D0D0E"/>
<path d="M22.1311 10.2128C22.5134 9.62561 23.0741 8.77454 23.363 8.32348C23.6603 7.8639 23.9322 7.48944 23.9747 7.48944C24.0087 7.48944 24.0596 7.54901 24.0851 7.6171C24.1106 7.68518 24.4844 8.28944 24.9177 8.96178C25.3595 9.62561 25.7842 10.2809 25.8777 10.4171C25.9626 10.5533 26.209 10.9192 26.4214 11.2341C26.6338 11.549 26.9481 12.0256 27.118 12.2894C27.2964 12.5533 27.4409 12.7916 27.4409 12.8341C27.4409 12.8682 27.5683 13.0554 27.7212 13.2426C27.8657 13.4384 28.146 13.8384 28.3329 14.1277C28.5198 14.4171 28.8257 14.8937 29.0126 15.1916C29.1995 15.4809 29.5053 15.9575 29.6922 16.2554C29.8791 16.5448 30.1085 16.8852 30.2104 17.0128C30.3039 17.132 30.5333 17.4809 30.7117 17.7873C30.8901 18.0937 31.0685 18.3575 31.094 18.3831C31.128 18.4086 31.2979 18.6554 31.4763 18.9362C31.7736 19.4128 31.7906 19.4724 31.7056 19.7873C31.6632 19.9745 31.5527 20.3575 31.4763 20.6384C31.3998 20.9192 31.2469 21.4724 31.128 21.8724C31.0175 22.2724 30.9241 22.6724 30.9241 22.766C30.9241 22.8596 30.8646 23.1065 30.7881 23.3192C30.7117 23.532 30.6012 23.932 30.5418 24.2128C30.4738 24.4937 30.3464 25.0299 30.2444 25.4043C30.1425 25.7788 29.9641 26.4511 29.8451 26.8937C29.7347 27.3362 29.5478 28.0511 29.4373 28.4682C29.3269 28.8852 29.14 29.6001 29.0295 30.0426C28.9106 30.4852 28.7152 31.2341 28.5963 31.7022C28.4773 32.1703 28.2734 32.9362 28.1545 33.4043C28.0271 33.8724 27.8147 34.6724 27.6787 35.1916C27.5428 35.7107 27.3304 36.4937 26.9906 37.7448L27.22 38.4682C27.3559 38.8682 27.5768 39.5575 27.7127 40.0001C27.8572 40.4426 28.0441 41.0214 28.129 41.2767C28.214 41.532 28.2649 41.7703 28.2395 41.8128C28.2225 41.8469 26.277 41.8724 19.6249 41.8724L19.6844 41.5575C19.7099 41.3788 19.8288 41.0043 19.9393 40.7235C20.0497 40.4426 20.1347 40.1788 20.1347 40.1277C20.1347 40.0767 20.2961 39.5235 20.8738 37.7448L20.7209 37.1916C20.6359 36.8852 20.483 36.332 20.381 35.9575C20.2791 35.5831 20.1687 35.1235 20.1262 34.9362C20.0922 34.749 19.9818 34.2894 19.8798 33.915C19.7779 33.5405 19.608 32.9107 19.4975 32.5107C19.3956 32.1107 19.2002 31.3873 19.0727 30.8937C18.9453 30.4001 18.7499 29.6341 18.631 29.1916C18.5205 28.749 18.3166 27.966 18.1807 27.4469C18.0448 26.9277 17.8324 26.1277 17.7134 25.6597C17.586 25.1916 17.3906 24.4426 17.2802 24.0001C17.1612 23.5575 16.9658 22.8256 16.8554 22.3831C16.7364 21.9405 16.5495 21.2511 16.4391 20.8511C16.3287 20.4511 16.2182 19.9575 16.1842 19.7448C16.1333 19.3873 16.1587 19.3192 16.6005 18.6384C16.8554 18.2384 17.1442 17.8043 17.2462 17.6597C17.3481 17.515 17.7474 16.9107 18.1382 16.2979C18.529 15.6852 18.9283 15.0809 19.0303 14.9362C19.1322 14.7916 19.7099 13.915 20.3216 12.9788C20.9333 12.0426 21.7488 10.8001 22.1311 10.2128Z" fill="#F3961C"/>
<path d="M13.3977 33.2171C13.3892 33.1745 13.4402 33.0894 13.5081 33.0384C13.6016 32.9448 13.6441 32.9958 13.729 33.2937C13.7885 33.498 13.9754 34.1618 14.1368 34.766C14.3067 35.3788 14.4766 36.0426 14.5191 36.2554C14.5616 36.4682 14.638 36.7405 14.689 36.8767C14.74 37.0043 14.7825 37.1575 14.7825 37.2171C14.7825 37.2682 14.4172 37.6171 13.9584 37.9745C13.4996 38.3405 12.854 38.8511 11.9364 39.5916L11.894 36.3405L12.6501 34.8171C13.0579 33.9831 13.3977 33.2597 13.3977 33.2171Z" fill="#F3961C"/>
<path d="M33.8043 34.5426C33.9187 34.1167 34.0552 33.6087 34.1184 33.3873C34.1864 33.1405 34.2628 32.9362 34.2968 32.9362C34.3223 32.9362 34.6111 33.4979 34.934 34.1958C35.2653 34.8852 35.6391 35.6767 35.775 35.9575C36.0214 36.4597 36.0214 36.4852 36.0214 37.9575C36.0299 38.7745 35.9959 39.4724 35.9619 39.5065C35.9195 39.5405 35.7071 39.4128 35.4692 39.2086C35.2398 39.0043 34.6961 38.5788 34.2798 38.2554C33.8635 37.932 33.4218 37.5831 33.3198 37.4894C33.1584 37.3533 33.1244 37.2597 33.1584 37.0214C33.1839 36.8597 33.2773 36.4341 33.3793 36.0852C33.4812 35.7362 33.6596 35.0809 33.7786 34.6384L33.8043 34.5426Z" fill="#F3961C"/>
<path d="M23.142 15.4383C23.3204 15.1574 23.5668 14.7915 23.6772 14.6213V14.6128C23.7962 14.4425 23.9321 14.2979 23.9831 14.2979C24.034 14.2979 24.3654 14.783 24.7222 15.3702C25.0705 15.9574 25.4358 16.5447 25.5378 16.6723C25.6312 16.7915 25.8266 17.0808 25.954 17.3191C26.09 17.5489 26.2599 17.8213 26.3363 17.9149C26.4128 18.0085 26.6337 18.3319 26.8121 18.6383C26.9905 18.9447 27.1689 19.2085 27.1944 19.234C27.2199 19.2596 27.4068 19.5234 27.5937 19.8298C27.7891 20.1362 27.942 20.4425 27.942 20.5106C27.942 20.5787 27.857 20.7489 27.7551 20.8936C27.6447 21.0298 27.3898 21.4127 27.1859 21.7447C26.9905 22.0766 26.7951 22.3574 26.7696 22.383C26.7441 22.4085 26.5657 22.6723 26.3873 22.9787C26.2089 23.2851 25.988 23.6085 25.9116 23.7021C25.8351 23.7957 25.6482 24.0851 25.4953 24.3404C25.3509 24.5957 25.1555 24.9021 25.0705 25.0213C24.9855 25.1404 24.7052 25.5489 24.4588 25.9319C24.204 26.3234 23.9746 26.6383 23.9406 26.6383C23.8981 26.6383 23.6263 26.2638 23.3374 25.8042C23.0401 25.3532 22.7172 24.8681 22.6323 24.7319C22.5473 24.6042 22.284 24.1957 22.0461 23.8383C21.8167 23.4723 21.5109 23.0042 21.3749 22.8C21.239 22.5957 20.9586 22.1617 20.7463 21.8298C20.5339 21.4979 20.2535 21.0723 19.8797 20.5106L20.0921 20.1447C20.211 19.9489 20.4999 19.4979 20.7378 19.1489C20.9671 18.8 21.2305 18.3915 21.3239 18.2553C21.4089 18.1106 21.6298 17.7702 21.8082 17.4979C21.9866 17.2255 22.284 16.7574 22.4709 16.4681C22.6578 16.1787 22.9551 15.7106 23.142 15.4383Z" fill="#0D0D0E"/>
<path d="M23.0147 19.1489C23.0997 19.0298 23.3291 18.6808 23.533 18.3659V18.3574C23.7368 18.0425 23.9322 17.7872 23.9577 17.7872C23.9832 17.7872 24.1446 18.0255 24.323 18.3149C24.5014 18.6127 24.7733 19.0298 24.9177 19.251C25.0707 19.4723 25.2576 19.7532 25.334 19.8893C25.419 20.017 25.5379 20.2042 25.6059 20.2979C25.7248 20.451 25.7078 20.5106 25.3765 21.0128C25.1811 21.3106 24.9602 21.6596 24.8837 21.7787C24.8073 21.8979 24.6459 22.1532 24.5184 22.3404C24.3995 22.5276 24.2126 22.817 23.9322 23.2766L23.7368 22.9362C23.6349 22.7489 23.4735 22.5021 23.3885 22.383C23.2951 22.2638 23.0742 21.9234 22.8873 21.617C22.7089 21.3106 22.505 21.0042 22.437 20.9362C22.3776 20.8681 22.2841 20.7404 22.2501 20.6553C22.1906 20.5532 22.2671 20.3574 22.5135 19.9319C22.7089 19.617 22.9298 19.2681 23.0147 19.1489Z" fill="#F0F0F0"/>
</svg>
