<svg width="32" height="32" viewBox="0 0 32 32" fill="none" xmlns="http://www.w3.org/2000/svg">
<path d="M15.6909 3.43707C15.8223 3.22521 15.9592 3.03007 15.9866 3.00777C16.0194 2.98547 16.0687 3.01335 16.1016 3.06353C16.1289 3.1137 16.5122 3.71027 16.9448 4.38488C17.3828 5.0595 18.007 6.02403 18.3301 6.53139C18.6531 7.03874 18.9762 7.5238 19.0364 7.61858C19.1021 7.71336 19.2883 7.9977 19.4525 8.25974C19.6168 8.52178 19.8303 8.8563 19.9289 9.00684C20.0275 9.15737 20.2246 9.46959 20.3779 9.70933C20.5257 9.94349 20.7557 10.3003 20.8816 10.4955C21.0021 10.6906 21.1609 10.9248 21.2211 11.0195C21.2868 11.1143 21.5715 11.5492 21.8617 11.9952C22.1464 12.4412 22.3764 12.8427 22.3764 12.8873C22.3764 12.9319 22.3381 13.0991 22.2998 13.2497C22.256 13.4058 22.1519 13.7905 22.0753 14.1138C21.9931 14.4372 21.8891 14.8386 21.8453 15.0059C21.8015 15.1732 21.7303 15.4631 21.6865 15.6471C21.6482 15.831 21.566 16.1433 21.5003 16.344C21.4401 16.5447 21.3908 16.751 21.3908 16.8067C21.3908 16.8569 21.3306 17.0967 21.2539 17.3364C21.1828 17.5706 21.0952 17.8772 21.0678 18.0166C21.0404 18.156 20.9638 18.4682 20.898 18.7135C20.8323 18.9588 20.7228 19.3881 20.6517 19.6613C20.5805 19.9345 20.46 20.4028 20.3834 20.6927C20.3067 20.9827 20.1808 21.4844 20.1041 21.8078C20.022 22.1312 19.9125 22.5549 19.8577 22.7556C19.7975 22.9563 19.7154 23.2797 19.6661 23.4804C19.6223 23.6811 19.5128 24.116 19.4252 24.4561C19.2883 24.9913 19.2773 25.0917 19.3321 25.2645C19.3704 25.3705 19.469 25.6882 19.5566 25.9614C19.6387 26.2346 19.7646 26.6361 19.8303 26.8535C19.896 27.0709 20.0165 27.4724 20.1041 27.7455C20.1862 28.0187 20.3122 28.4146 20.5148 29H16.0523C12.1209 29 11.5898 28.9888 11.5898 28.9164C11.5898 28.8718 11.7267 28.3756 11.8964 27.818C12.0662 27.2549 12.2633 26.6361 12.3345 26.4353C12.4056 26.2346 12.4659 26.0283 12.4659 25.9782C12.4659 25.9224 12.5097 25.7719 12.5699 25.6436C12.6247 25.5098 12.6904 25.3035 12.7123 25.1809C12.7396 25.0136 12.7123 24.8129 12.6028 24.4003C12.5206 24.0937 12.3837 23.5919 12.3016 23.2853C12.2195 22.9786 12.1374 22.6664 12.1209 22.5884C12.11 22.5103 12.0059 22.0977 11.891 21.6684C11.7814 21.2391 11.6172 20.6147 11.5296 20.2746L11.5199 20.237C11.4341 19.9039 11.3311 19.5041 11.2941 19.3268C11.2503 19.1428 11.1792 18.8808 11.1299 18.7414C11.0806 18.602 11.0423 18.4403 11.0423 18.379C11.0423 18.3177 10.982 18.0556 10.9109 17.7936C10.8342 17.5315 10.7137 17.0799 10.6426 16.79C10.5659 16.5001 10.4509 16.0596 10.3852 15.8143C10.314 15.569 10.2374 15.2568 10.2155 15.1174C10.1881 14.978 10.1169 14.7048 10.0622 14.5041C10.0019 14.3034 9.8979 13.941 9.83219 13.6957C9.76649 13.4504 9.70078 13.1493 9.68436 13.0267C9.66793 12.8482 9.70078 12.7423 9.84862 12.4914C9.94718 12.3242 10.0676 12.1346 10.1114 12.0788C10.1552 12.0231 10.2921 11.8224 10.4126 11.6328C10.5331 11.4377 10.7192 11.1478 10.8232 10.9805C10.9273 10.8132 11.0477 10.6293 11.0861 10.5679C11.1189 10.5122 11.2449 10.317 11.3598 10.1331C11.4693 9.95464 11.6117 9.74278 11.6774 9.65915C11.7376 9.5811 11.8855 9.35251 12.0059 9.15179C12.1209 8.95108 12.2414 8.76152 12.2742 8.72807C12.3016 8.70019 12.433 8.49948 12.5644 8.28204C12.6958 8.07018 12.8437 7.83601 12.8984 7.75796C12.9532 7.6799 13.2653 7.206 13.5883 6.69865L13.6432 6.61396C13.968 6.11226 14.4075 5.43352 14.6561 5.05392C14.9189 4.6525 15.1707 4.25665 15.2145 4.16187C15.2583 4.06709 15.335 3.95558 15.3733 3.91098C15.4171 3.86637 15.5595 3.65451 15.6909 3.43707Z" fill="#0D0D0E"/>
<path d="M9.39964 18.9254C9.39416 18.9086 9.45987 18.7748 9.542 18.6354L9.69531 18.379L9.77196 18.5741C9.81577 18.68 9.88147 18.9198 9.92528 19.1038C9.9636 19.2878 10.0841 19.7505 10.1826 20.1352C10.2867 20.5199 10.4016 20.9548 10.44 21.1109C10.4783 21.2614 10.5659 21.5904 10.6371 21.8357C10.7083 22.081 10.7685 22.3207 10.7685 22.3653C10.7685 22.4099 10.8342 22.672 10.9109 22.9508C10.9875 23.2239 11.108 23.6644 11.1846 23.9264C11.2558 24.1885 11.316 24.4394 11.316 24.484C11.316 24.5286 11.3653 24.7181 11.5186 25.2366L11.1846 25.5154C11.0039 25.6659 10.6042 25.9949 10.3031 26.2402C9.99646 26.4855 9.39416 26.9762 8.95613 27.333C8.52357 27.6898 7.92127 28.186 7.62012 28.4369C7.31897 28.6822 7.05615 28.8885 7.02877 28.8885C7.00687 28.8885 6.99592 27.7734 7.0014 23.9264L8.20599 21.4454C8.86852 20.0795 9.40511 18.9477 9.39964 18.9254Z" fill="#0D0D0E"/>
<path d="M22.0643 19.271C22.1081 19.1484 22.1683 18.9031 22.2067 18.7302C22.245 18.5184 22.2888 18.4236 22.3326 18.4403C22.3709 18.457 22.5462 18.7748 22.7268 19.1484C22.9021 19.5219 23.4277 20.6203 23.8931 21.5848C24.364 22.5493 24.802 23.4525 24.9992 23.8428V26.3684C25.0046 27.7511 24.9827 28.8885 24.9608 28.8885C24.9389 28.8885 24.7254 28.7157 24.4845 28.5038C24.2436 28.2975 23.8 27.9295 23.5044 27.6842C23.2032 27.4445 22.7104 27.0431 22.4038 26.7977C22.0972 26.5524 21.6975 26.2235 21.5222 26.0674C21.3416 25.9168 21.0459 25.6715 20.8542 25.5266C20.6681 25.3816 20.5148 25.2311 20.5148 25.1976C20.5148 25.1586 20.575 24.9244 20.6462 24.6791C20.7119 24.4338 20.7995 24.1216 20.8378 23.9822C20.8707 23.8428 20.9692 23.4581 21.0568 23.118C21.1444 22.7835 21.2485 22.3821 21.2978 22.226C21.3416 22.0754 21.4073 21.8245 21.4456 21.6684C21.4839 21.5179 21.5989 21.0774 21.7029 20.6927C21.807 20.308 21.911 19.8843 21.9384 19.7449C21.9603 19.6056 22.0205 19.3937 22.0643 19.271Z" fill="#0D0D0E"/>
<path d="M14.8478 7.03318C15.0942 6.64849 15.4556 6.09095 15.6418 5.79546C15.8334 5.49439 16.0086 5.24908 16.036 5.24908C16.0579 5.24908 16.0908 5.2881 16.1072 5.33271C16.1236 5.37731 16.3645 5.77316 16.6438 6.21361C16.9285 6.64849 17.2023 7.07779 17.2625 7.16699C17.3173 7.2562 17.476 7.49594 17.6129 7.70222C17.7498 7.90851 17.9524 8.22073 18.0619 8.39357C18.1769 8.5664 18.27 8.72251 18.27 8.75039C18.27 8.77269 18.3521 8.89535 18.4507 9.018C18.5438 9.14624 18.7244 9.40828 18.8449 9.59784C18.9654 9.7874 19.1625 10.0996 19.2829 10.2948C19.4034 10.4843 19.6005 10.7965 19.721 10.9917C19.8414 11.1812 19.9893 11.4042 20.055 11.4879C20.1152 11.5659 20.263 11.7945 20.378 11.9952C20.493 12.1959 20.608 12.3688 20.6244 12.3855C20.6463 12.4022 20.7558 12.5639 20.8708 12.7479C21.0625 13.0601 21.0734 13.0992 21.0187 13.3054C20.9913 13.4281 20.9201 13.679 20.8708 13.863C20.8215 14.047 20.723 14.4094 20.6463 14.6714C20.5751 14.9334 20.5149 15.1955 20.5149 15.2568C20.5149 15.3181 20.4766 15.4798 20.4273 15.6192C20.378 15.7586 20.3068 16.0206 20.2685 16.2046C20.2247 16.3886 20.1426 16.7398 20.0769 16.9852C20.0112 17.2305 19.8962 17.6709 19.8195 17.9608C19.7484 18.2508 19.6279 18.7191 19.5567 18.9923C19.4855 19.2655 19.3651 19.7338 19.2939 20.0237C19.2172 20.3136 19.0913 20.8043 19.0146 21.1109C18.938 21.4176 18.8066 21.9193 18.7299 22.226C18.6478 22.5326 18.5109 23.0567 18.4233 23.3968C18.3357 23.7369 18.1988 24.2498 17.9798 25.0694L18.1276 25.5433C18.2152 25.8053 18.3576 26.257 18.4452 26.5469C18.5383 26.8368 18.6587 27.2159 18.7135 27.3832C18.7682 27.5504 18.8011 27.7065 18.7847 27.7344C18.7737 27.7567 17.5199 27.7734 13.2326 27.7734L13.2709 27.5672C13.2873 27.4501 13.364 27.2048 13.4352 27.0208C13.5064 26.8368 13.5611 26.664 13.5611 26.6305C13.5611 26.597 13.6651 26.2346 14.0375 25.0694L13.9389 24.707C13.8842 24.5063 13.7856 24.1439 13.7199 23.8986C13.6542 23.6533 13.583 23.3522 13.5556 23.2295C13.5337 23.1069 13.4626 22.8058 13.3968 22.5605C13.3311 22.3152 13.2216 21.9026 13.1505 21.6406C13.0847 21.3785 12.9588 20.9046 12.8767 20.5813C12.7946 20.2579 12.6686 19.7561 12.592 19.4662C12.5208 19.1763 12.3894 18.6633 12.3018 18.3232C12.2142 17.9831 12.0773 17.4591 12.0006 17.1524C11.9185 16.8458 11.7925 16.3551 11.7214 16.0652C11.6447 15.7753 11.5188 15.2958 11.4476 15.0059C11.3709 14.716 11.2505 14.2644 11.1793 14.0024C11.1081 13.7403 11.0369 13.4169 11.015 13.2776C10.9822 13.0434 10.9986 12.9988 11.2833 12.5528C11.4476 12.2907 11.6338 12.0064 11.6995 11.9116C11.7652 11.8168 12.0225 11.421 12.2744 11.0196C12.5263 10.6181 12.7836 10.2223 12.8493 10.1275C12.915 10.0327 13.2873 9.45846 13.6816 8.84517C14.0758 8.23188 14.6014 7.41788 14.8478 7.03318Z" fill="#F3961C"/>
<path d="M9.21909 22.1033C9.21362 22.0754 9.24647 22.0197 9.29027 21.9862C9.3505 21.9249 9.37788 21.9584 9.43263 22.1535C9.47096 22.2873 9.59142 22.7222 9.69545 23.118C9.80496 23.5195 9.91447 23.9543 9.94185 24.0937C9.96923 24.2331 10.0185 24.4115 10.0514 24.5007C10.0842 24.5843 10.1116 24.6847 10.1116 24.7237C10.1116 24.7572 9.87614 24.9858 9.58047 25.2199C9.2848 25.4597 8.86866 25.7942 8.27732 26.2793L8.24994 24.1495L8.73725 23.1515C9.00008 22.6051 9.21909 22.1312 9.21909 22.1033Z" fill="#F3961C"/>
<path d="M22.3713 22.9716C22.445 22.6927 22.533 22.3599 22.5737 22.2148C22.6175 22.0531 22.6668 21.9193 22.6887 21.9193C22.7051 21.9193 22.8913 22.2873 23.0993 22.7445C23.3129 23.1961 23.5538 23.7146 23.6414 23.8986C23.8002 24.2275 23.8002 24.2443 23.8002 25.2088C23.8057 25.744 23.7837 26.2012 23.7618 26.2235C23.7345 26.2458 23.5976 26.1622 23.4443 26.0284C23.2964 25.8946 22.946 25.6158 22.6777 25.4039C22.4094 25.1921 22.1247 24.9635 22.059 24.9021C21.955 24.8129 21.9331 24.7516 21.955 24.5955C21.9714 24.4896 22.0316 24.2108 22.0973 23.9822C22.163 23.7536 22.278 23.3243 22.3547 23.0344L22.3713 22.9716Z" fill="#F3961C"/>
<path d="M15.4993 10.4564C15.6143 10.2724 15.7731 10.0327 15.8443 9.92115V9.91557C15.921 9.80407 16.0086 9.70929 16.0414 9.70929C16.0743 9.70929 16.2878 10.0271 16.5178 10.4118C16.7423 10.7965 16.9777 11.1812 17.0434 11.2648C17.1036 11.3429 17.2296 11.5324 17.3117 11.6885C17.3993 11.8391 17.5088 12.0175 17.5581 12.0788C17.6074 12.1401 17.7498 12.352 17.8647 12.5527C17.9797 12.7534 18.0947 12.9263 18.1111 12.943C18.1276 12.9597 18.248 13.1325 18.3685 13.3333C18.4944 13.534 18.593 13.7347 18.593 13.7793C18.593 13.8239 18.5382 13.9354 18.4725 14.0302C18.4013 14.1194 18.2371 14.3703 18.1057 14.5877C17.9797 14.8051 17.8538 14.9891 17.8374 15.0059C17.8209 15.0226 17.7059 15.1954 17.591 15.3961C17.476 15.5968 17.3336 15.8087 17.2843 15.87C17.2351 15.9314 17.1146 16.1209 17.016 16.2882C16.923 16.4554 16.797 16.6562 16.7423 16.7342C16.6875 16.8123 16.5068 17.0799 16.348 17.3308C16.1838 17.5872 16.0359 17.7935 16.014 17.7935C15.9867 17.7935 15.8114 17.5482 15.6253 17.2471C15.4336 16.9517 15.2256 16.6339 15.1708 16.5447C15.1161 16.461 14.9463 16.1934 14.793 15.9592C14.6452 15.7195 14.4481 15.4129 14.3605 15.2791C14.2729 15.1452 14.0922 14.8609 13.9553 14.6435C13.8184 14.426 13.6377 14.1473 13.3968 13.7793L13.5337 13.5395C13.6103 13.4113 13.7965 13.1158 13.9498 12.8872C14.0976 12.6586 14.2674 12.391 14.3276 12.3018C14.3824 12.207 14.5247 11.984 14.6397 11.8056C14.7547 11.6272 14.9463 11.3206 15.0668 11.131C15.1872 10.9414 15.3789 10.6348 15.4993 10.4564Z" fill="#0D0D0E"/>
<path d="M15.4173 12.8872C15.4721 12.8092 15.6199 12.5806 15.7513 12.3743V12.3687C15.8827 12.1624 16.0087 11.9952 16.0251 11.9952C16.0415 11.9952 16.1455 12.1513 16.2605 12.3408C16.3755 12.536 16.5507 12.8092 16.6438 12.9541C16.7424 13.0991 16.8628 13.2831 16.9121 13.3723C16.9669 13.4559 17.0435 13.5786 17.0873 13.6399C17.164 13.7403 17.153 13.7793 16.9395 14.1082C16.8135 14.3034 16.6712 14.532 16.6219 14.61C16.5726 14.6881 16.4686 14.8553 16.3865 14.978C16.3098 15.1006 16.1893 15.2902 16.0087 15.5913L15.8827 15.3683C15.817 15.2456 15.713 15.0839 15.6582 15.0059C15.598 14.9278 15.4556 14.7048 15.3352 14.5041C15.2202 14.3034 15.0888 14.1027 15.045 14.058C15.0067 14.0134 14.9464 13.9298 14.9245 13.8741C14.8862 13.8072 14.9355 13.6789 15.0943 13.4002C15.2202 13.1939 15.3626 12.9653 15.4173 12.8872Z" fill="#F0F0F0"/>
</svg>
